<svg width="475" height="475" viewBox="0 0 475 475" fill="none" xmlns="http://www.w3.org/2000/svg">
<path fill-rule="evenodd" clip-rule="evenodd" d="M340.177 206H25.7957C13.2521 206 3 216.222 3 228.716C3 241.321 13.2521 251.586 25.7957 251.586H39.3253C51.855 251.586 62.2189 261.808 62.2189 274.344C62.2189 286.978 51.855 297.2 39.3253 297.2H30.6053C18.0613 297.2 7.80898 307.422 7.80898 319.929C7.80898 332.562 18.0613 342.785 30.6053 342.785H136.444C149.045 342.785 159.437 353.008 159.437 365.584C159.437 378.093 149.045 388.441 136.444 388.441H87.1954C74.6518 388.441 64.301 398.664 64.301 411.171C64.301 423.679 74.6518 434 87.1954 434H384.546C397.161 434 407.511 423.679 407.511 411.171C407.511 398.664 397.161 388.441 384.546 388.441H376.304C363.705 388.441 353.383 378.093 353.383 365.584C353.383 353.008 363.705 342.785 376.304 342.785H388.456C400.985 342.785 411.238 332.562 411.238 319.929C411.238 307.422 400.985 297.2 388.456 297.2H271.858C241.581 297.2 241.553 251.586 271.858 251.586H340.177C352.848 251.586 363.1 241.321 363.1 228.716C363.1 216.222 352.848 206 340.177 206ZM452.219 297.509C464.748 297.509 475 307.729 475 320.267C475 332.802 464.748 343.025 452.219 343.025C439.604 343.025 429.35 332.802 429.35 320.267C429.35 307.729 439.604 297.509 452.219 297.509Z" fill="#64618E"/>
<path d="M335.007 287.564L333.7 288.597C333.525 288.57 333.339 288.532 333.167 288.483C332.999 288.44 332.838 288.393 332.673 288.326C332.511 288.28 332.358 288.216 332.205 288.14L332.144 288.116C332.04 288.075 331.937 288.022 331.84 287.965C331.71 287.903 331.585 287.837 331.468 287.754L331.349 287.682C331.257 287.631 331.167 287.569 331.083 287.502C330.981 287.437 330.886 287.369 330.791 287.288C330.491 287.053 330.218 286.784 329.953 286.488L324.936 280.778C319.802 274.932 310.402 280.535 313.064 287.817L313.38 288.66L313.387 288.696C313.61 289.343 313.397 290.038 312.883 290.444C312.762 290.54 312.634 290.611 312.488 290.674L312.458 290.687C311.951 290.882 311.43 291.004 310.917 291.06C310.742 291.085 310.573 291.094 310.401 291.097C310.233 291.106 310.054 291.102 309.883 291.094C309.717 291.092 309.546 291.071 309.376 291.052C309.074 291.022 308.765 290.957 308.464 290.875C308.274 290.819 308.086 290.762 307.904 290.689C307.766 290.644 307.624 290.581 307.486 290.525C307.164 290.377 306.851 290.202 306.558 290.001C306.456 289.938 306.36 289.869 306.259 289.794C305.302 289.078 304.526 288.082 304.075 286.873L302.382 282.369C300.109 276.335 293.087 275.391 288.932 278.674C287.435 279.856 286.304 281.594 285.904 283.826L285.895 283.906C285.869 284.03 285.854 284.155 285.834 284.285L278.458 283.323C278.419 283.208 278.386 283.1 278.354 282.981L278.342 282.94C278.306 282.804 278.27 282.667 278.252 282.527L278.232 282.409C278.191 282.215 278.163 282.009 278.153 281.801C278.135 281.609 278.13 281.407 278.137 281.207L278.143 281.098C278.144 280.891 278.163 280.68 278.188 280.465C279.44 270.832 268.36 264.542 260.735 270.566L258.426 272.391L255.92 269.219L274.139 254.825C282.443 248.265 285.935 237.87 284.089 228.14L335.007 287.564Z" fill="#588DB0"/>
<path d="M339.138 287.094L339.146 287.087C339.8 286.515 339.865 285.521 339.292 284.868L287.205 225.561C286.204 224.422 284.657 223.849 283.182 224.201C281.011 224.719 279.726 226.81 280.12 228.893C281.749 237.506 278.497 246.225 271.633 251.648L243.389 273.963L248.4 280.308L276.645 257.992C278.576 256.466 280.294 254.746 281.785 252.874L278.185 280.465C277.721 284.031 280.235 287.3 283.801 287.766C284.662 287.877 285.45 287.272 285.562 286.411L290.292 250.163L304.075 286.878C305.339 290.245 309.093 291.951 312.461 290.686H312.462C313.273 290.381 313.685 289.475 313.38 288.664L299.581 251.905L329.956 286.49C332.326 289.188 336.434 289.459 339.138 287.094Z" fill="#38607A"/>
<path d="M279.489 270.475C280.27 264.483 273.377 260.574 268.636 264.32L258.424 272.388L258.426 272.391L260.735 270.566C268.336 264.561 279.365 270.793 278.198 280.373L279.489 270.475Z" fill="#86ACC6"/>
<path d="M298.683 272.516C296.503 266.708 288.005 267.687 287.202 273.839L285.864 284.1L285.895 283.906L285.905 283.826C286.304 281.594 287.436 279.856 288.932 278.674C293.087 275.391 300.109 276.334 302.382 282.369L298.683 272.516Z" fill="#86ACC6"/>
<path d="M329.956 286.489L318.109 272.999C314.344 268.713 307.443 272.848 309.448 278.189L313.38 288.663L313.383 288.674L313.38 288.66L313.064 287.817C310.402 280.535 319.802 274.932 324.936 280.778L329.953 286.488C330.099 286.652 330.249 286.803 330.404 286.949C330.249 286.804 330.099 286.653 329.956 286.489Z" fill="#86ACC6"/>
<path d="M254.698 239.538L250.304 238.742C249.683 238.629 249.272 238.035 249.384 237.415L250.18 233.021C250.293 232.401 250.887 231.99 251.507 232.101L255.901 232.898C256.521 233.01 256.933 233.604 256.821 234.224L256.025 238.619C255.912 239.239 255.318 239.651 254.698 239.538Z" fill="#23445A"/>
<path d="M245.919 227.554H239.92C239.074 227.554 238.388 226.868 238.388 226.022V220.024C238.388 219.178 239.074 218.492 239.92 218.492H245.694C246.664 218.492 247.451 219.278 247.451 220.248V226.022C247.451 226.868 246.764 227.554 245.919 227.554Z" fill="#23445A"/>
<path d="M234.132 216.199L226.148 217.367C225.022 217.532 223.975 216.752 223.81 215.625L222.641 207.642C222.477 206.516 223.257 205.469 224.383 205.304L232.367 204.136C233.494 203.971 234.541 204.751 234.706 205.877L235.873 213.861C236.038 214.987 235.259 216.034 234.132 216.199Z" fill="#23445A"/>
<path d="M218.719 204.642L209.449 208.38C208.139 208.907 206.652 208.274 206.123 206.966L202.386 197.695C201.859 196.387 202.492 194.899 203.799 194.371L213.071 190.633C214.379 190.106 215.867 190.739 216.394 192.047L220.133 201.317C220.66 202.627 220.027 204.114 218.719 204.642Z" fill="#23445A"/>
<path d="M133.04 299.037L102.885 303.479C99.1925 304.023 95.7581 301.471 95.2142 297.778C94.6702 294.086 97.2225 290.651 100.915 290.107L131.07 285.665C134.762 285.121 138.197 287.673 138.741 291.366C139.285 295.059 136.733 298.493 133.04 299.037Z" fill="#38607A"/>
<path d="M145.833 413.418L99.4793 409.464C91.4706 408.781 84.4243 414.72 83.741 422.728C83.5783 424.636 84.9932 426.314 86.9009 426.477L155.349 432.316C157.257 432.478 158.934 431.064 159.098 429.156C159.781 421.148 153.841 414.102 145.833 413.418Z" fill="#23445A"/>
<path d="M76.2874 427.821H91.3388C95.0339 427.821 98.0291 424.826 98.0291 421.13C98.0291 417.436 95.0339 414.441 91.3388 414.441H88.8951C82.6096 415.812 77.4669 420.233 75.0922 426.078C74.7542 426.911 75.3887 427.821 76.2874 427.821Z" fill="#EAEEF0"/>
<path d="M86.4458 420.129H90.5463C92.3233 420.129 94.0023 420.543 95.4942 421.279C96.7352 421.892 98.1712 420.778 97.7931 419.447C97.7383 419.253 97.6723 419.057 97.5958 418.86C96.5409 416.142 93.8158 414.441 90.901 414.441H88.896C84.6253 415.373 80.8866 417.714 78.1833 420.951C77.4776 421.797 78.4241 423.02 79.4165 422.544C81.6328 421.484 83.9859 420.666 86.4458 420.129Z" fill="#B5BCC1"/>
<path d="M161.899 427.671H137.567C117.715 427.671 101.622 411.577 101.622 391.724C101.622 371.872 117.715 355.779 137.567 355.779H161.899C181.751 355.779 197.844 371.872 197.844 391.724C197.844 411.577 181.751 427.671 161.899 427.671Z" fill="#38607A"/>
<path d="M161.899 355.779H137.567C117.715 355.779 101.622 371.872 101.622 391.724C101.622 394.145 101.863 396.508 102.32 398.792C103.243 403.398 107.925 406.174 112.447 404.898L112.593 404.857C116.215 403.83 118.629 400.375 118.354 396.62C118.306 395.959 118.282 395.293 118.282 394.62C118.282 379.668 130.402 367.547 145.354 367.547H166.572C168.704 367.547 170.654 366.347 171.62 364.447L171.667 364.354C173.417 360.908 171.246 356.798 167.428 356.205C165.626 355.925 163.78 355.779 161.899 355.779Z" fill="#588DB0"/>
<path d="M129.123 396.435H115.328C112.196 396.435 109.634 398.934 109.558 402.065L109.555 402.182C109.476 405.425 112.082 408.097 115.325 408.097H129.123C145.233 408.097 158.862 397.498 163.429 382.894C164.376 379.868 162.596 376.651 159.558 375.737L159.435 375.701C156.392 374.789 153.22 376.506 152.254 379.531C149.124 389.324 139.94 396.435 129.123 396.435Z" fill="#38607A"/>
<path d="M157.547 416.23H117.44C109.401 416.23 102.886 422.746 102.886 430.784C102.886 432.699 104.439 434.25 106.352 434.25H171.467C172.599 434.25 173.517 433.333 173.517 432.2C173.517 423.38 166.367 416.23 157.547 416.23Z" fill="#38607A"/>
<path d="M92.6543 434.25H107.705C111.401 434.25 114.396 431.254 114.396 427.56C114.396 423.864 111.401 420.87 107.705 420.87H105.262C98.9766 422.241 93.8333 426.663 91.4586 432.506C91.1201 433.339 91.7553 434.25 92.6543 434.25Z" fill="#EAEEF0"/>
<path d="M102.813 426.559H106.913C108.69 426.559 110.369 426.973 111.86 427.71C113.102 428.321 114.539 427.207 114.16 425.875C114.105 425.682 114.04 425.487 113.963 425.289C112.908 422.573 110.183 420.87 107.267 420.87H105.262C100.992 421.802 97.2536 424.143 94.5496 427.381C93.8442 428.226 94.7905 429.448 95.7838 428.973C97.9987 427.913 100.353 427.095 102.813 426.559Z" fill="#B5BCC1"/>
<path d="M267.624 278.692C262.943 230.47 223.068 192.553 174.005 190.903C173.314 208.021 168.507 224.49 163.16 240.849H168.732C173.955 240.849 178.686 242.964 182.11 246.389C185.534 249.812 187.649 254.544 187.649 259.775C187.649 270.221 179.178 278.692 168.732 278.692H166.55H160.769C147.158 278.692 134.371 282.057 123.293 287.972C117.195 291.211 111.614 295.234 106.7 299.883C92.8637 312.977 84.3005 331.07 84.3005 351.054C84.3005 391.012 118.545 423.415 160.769 423.415H268.091V327.847V288.238C268.091 285.014 267.934 281.832 267.624 278.692Z" fill="#588DB0"/>
<path d="M296.796 335.007H290.724C289.97 335.007 289.407 335.686 289.532 336.431L289.544 336.501C290.079 339.735 292.518 342.262 295.661 343.196C304.942 345.954 311.595 354.826 310.946 365.142C310.276 375.818 301.586 384.501 290.912 385.165C278.444 385.94 268.091 376.058 268.091 363.758V423.415H296.796C321.209 423.415 341 403.625 341 379.211C341 354.797 321.209 335.007 296.796 335.007Z" fill="#588DB0"/>
<path d="M289.54 392.704C290.148 392.704 290.767 392.685 291.376 392.647C300.099 392.104 307.779 387.687 312.715 381.098C313.979 379.411 313.635 377.007 311.904 375.806L311.794 375.732C310.166 374.606 307.919 374.912 306.737 376.5C303.071 381.428 297.36 384.764 290.911 385.164C290.452 385.193 289.994 385.207 289.54 385.207C285.769 385.207 282.225 384.231 279.146 382.52C277.182 381.428 274.702 382.42 273.935 384.533L273.908 384.605C273.288 386.315 273.997 388.232 275.588 389.113C279.729 391.4 284.485 392.704 289.54 392.704Z" fill="#86ACC6"/>
<path d="M313.819 354.684C311.586 354.853 309.998 356.962 310.483 359.147C310.907 361.061 311.077 363.071 310.946 365.142C310.937 365.299 310.925 365.456 310.911 365.613C310.759 367.382 311.882 369.015 313.592 369.497L313.665 369.517C315.911 370.146 318.183 368.583 318.381 366.258C318.399 366.043 318.415 365.827 318.429 365.612C318.602 362.859 318.387 360.165 317.829 357.586C317.437 355.772 315.757 354.541 313.906 354.678L313.819 354.684Z" fill="#86ACC6"/>
<path d="M337.153 361.158C335.906 358.377 331.701 359.366 331.795 362.411C331.836 363.745 331.815 365.091 331.73 366.447C330.399 387.649 313.406 404.632 292.203 405.949C291.321 406.004 290.425 406.032 289.54 406.032C267.021 406.032 248.562 388.331 247.335 366.112C230.945 382.067 216.659 401.789 209.021 423.415H268.091H296.796C321.209 423.415 341 403.625 341 379.211C341 372.779 339.625 366.669 337.153 361.158Z" fill="#38607A"/>
<path d="M268.075 286.789C268.04 284.057 267.883 281.357 267.624 278.692C265.615 257.971 257.097 239.158 244.148 224.302L244.153 224.299L243.99 224.117C243.72 223.809 243.444 223.505 243.17 223.2C242.829 222.82 242.488 222.443 242.141 222.068C241.86 221.766 241.577 221.465 241.292 221.166C240.932 220.787 240.568 220.411 240.203 220.039C239.928 219.76 239.655 219.481 239.378 219.205C238.947 218.775 238.509 218.354 238.069 217.932C237.852 217.723 237.637 217.511 237.418 217.304C236.769 216.694 236.113 216.094 235.449 215.502C235.234 215.311 235.014 215.125 234.797 214.935C234.319 214.517 233.84 214.101 233.353 213.692C233.089 213.47 232.822 213.252 232.556 213.033C232.1 212.658 231.642 212.285 231.18 211.919C230.91 211.705 230.641 211.492 230.369 211.282C229.872 210.895 229.371 210.515 228.865 210.139C228.632 209.965 228.4 209.788 228.164 209.616C226.673 208.524 225.151 207.474 223.597 206.467C223.382 206.328 223.164 206.193 222.949 206.055C222.378 205.691 221.803 205.332 221.223 204.979C220.966 204.822 220.705 204.668 220.446 204.512C219.885 204.179 219.321 203.851 218.754 203.529C218.502 203.385 218.249 203.241 217.995 203.099C217.344 202.736 216.688 202.383 216.028 202.035C215.898 201.966 215.769 201.892 215.638 201.824V201.827C203.111 195.297 188.988 191.407 174.005 190.903C173.729 197.757 172.79 204.506 171.421 211.187L171.415 211.213C171.178 212.371 170.926 213.527 170.662 214.682C170.574 215.073 170.482 215.464 170.39 215.856C170.192 216.704 169.988 217.552 169.778 218.398C169.686 218.766 169.595 219.133 169.503 219.501C169.203 220.677 168.897 221.851 168.578 223.023C169.275 223.048 169.964 223.091 170.652 223.143C170.863 223.158 171.072 223.178 171.283 223.197C171.772 223.239 172.258 223.288 172.742 223.344C172.966 223.369 173.19 223.395 173.414 223.423C173.935 223.491 174.454 223.567 174.97 223.649C175.126 223.674 175.285 223.696 175.44 223.722C176.098 223.832 176.751 223.956 177.398 224.091C177.576 224.128 177.752 224.171 177.929 224.21C178.406 224.315 178.88 224.425 179.351 224.542C179.579 224.6 179.809 224.659 180.036 224.719C180.471 224.834 180.901 224.955 181.33 225.082C181.544 225.144 181.757 225.204 181.968 225.269C182.575 225.457 183.177 225.651 183.772 225.859C183.894 225.901 184.013 225.95 184.134 225.992C184.621 226.167 185.104 226.348 185.582 226.537C185.816 226.629 186.047 226.724 186.278 226.82C186.644 226.971 187.007 227.126 187.368 227.284C187.609 227.391 187.85 227.497 188.089 227.607C188.462 227.78 188.831 227.958 189.198 228.138C189.403 228.239 189.61 228.335 189.813 228.439C190.335 228.704 190.85 228.98 191.359 229.263C191.6 229.398 191.836 229.537 192.074 229.676C192.373 229.848 192.668 230.021 192.961 230.201C193.22 230.358 193.475 230.517 193.729 230.679C193.998 230.849 194.263 231.023 194.527 231.198C194.78 231.368 195.035 231.536 195.285 231.709C195.568 231.905 195.844 232.108 196.123 232.31C196.547 232.62 196.966 232.938 197.38 233.261C197.595 233.429 197.813 233.597 198.024 233.77C198.29 233.986 198.552 234.206 198.811 234.428C199.002 234.591 199.191 234.755 199.379 234.92C199.642 235.153 199.905 235.387 200.162 235.625C200.346 235.796 200.525 235.971 200.707 236.144C201.281 236.688 201.825 237.263 202.376 237.831L202.477 237.936C202.74 238.22 202.995 238.51 203.248 238.799C203.376 238.944 203.504 239.09 203.628 239.237C203.876 239.527 204.118 239.821 204.358 240.116C204.469 240.256 204.579 240.396 204.689 240.537C205.502 241.576 206.262 242.65 206.963 243.755C207.033 243.864 207.104 243.971 207.172 244.081C207.384 244.421 207.587 244.767 207.787 245.113C207.869 245.252 207.949 245.392 208.027 245.532C208.225 245.884 208.419 246.237 208.606 246.595C208.652 246.685 208.696 246.776 208.742 246.866C209.164 247.692 209.559 248.532 209.918 249.387C211.733 253.71 212.731 258.376 212.731 263.248C212.731 268.72 211.481 273.936 209.216 278.692C206.883 283.598 203.468 288.013 199.236 291.712C196.279 294.301 192.914 296.535 189.24 298.342C183.143 301.333 177.562 305.048 172.647 309.338C166.533 314.686 161.435 320.933 157.669 327.847C152.914 336.551 150.248 346.306 150.248 356.593C150.248 393.494 184.492 423.415 226.717 423.415H237.644C239.058 413.297 240.29 403.128 240.94 392.866C216.263 392.925 194.612 379.475 188.606 358.171C186.642 351.204 186.489 343.991 188.158 336.708C189.453 331.024 191.844 325.478 195.257 320.238C198.06 315.946 201.477 311.98 205.43 308.436C209.56 304.725 213.144 300.552 216.073 296.049C220.444 289.344 223.317 282.098 224.608 274.527C225.947 266.719 225.545 258.929 223.415 251.373C222.902 249.549 222.294 247.772 221.602 246.048C220.333 242.885 221.351 239.268 224.099 237.252L224.2 237.178C227.252 234.938 231.482 235.363 234.071 238.125C245.879 250.719 253.722 267.103 255.488 285.313C255.746 287.93 255.871 290.595 255.871 293.236V325.089C255.871 333.529 258.908 341.256 263.946 347.242C265.354 348.915 268.091 347.888 268.091 345.703V288.238C268.091 287.755 268.091 287.272 268.075 286.789Z" fill="#38607A"/>
<path d="M226.717 423.415H160.769C118.545 423.415 84.3005 391.012 84.3005 351.054C84.3005 332.853 91.4059 316.218 103.134 303.498C104.276 302.257 105.467 301.05 106.7 299.883C111.614 295.234 117.195 291.211 123.293 287.972C134.371 282.057 147.158 278.692 160.769 278.692H168.732C179.178 278.692 187.649 270.221 187.649 259.775C187.649 254.544 185.534 249.812 182.11 246.389C178.686 242.964 173.955 240.849 168.732 240.849H163.16C165.092 234.927 166.958 228.996 168.574 223.023C193.122 223.898 212.731 241.574 212.731 263.248C212.731 268.72 211.481 273.936 209.215 278.692C206.883 283.598 203.468 288.013 199.236 291.712C196.279 294.301 192.914 296.535 189.24 298.342C183.143 301.333 177.562 305.048 172.647 309.338C166.533 314.686 161.435 320.933 157.669 327.847C152.914 336.551 150.248 346.306 150.248 356.593C150.248 393.494 184.492 423.415 226.717 423.415Z" fill="#38607A"/>
<path d="M161.277 400.615C157.504 400.853 154.047 400.683 151.473 398.967C147.308 395.635 143.976 385.639 148.974 381.475C149.984 380.465 151.19 379.996 152.521 379.874C153.062 378.956 153.52 377.983 153.872 376.96C152.006 371.887 150.823 366.539 150.423 361.016C148.566 359.042 146.216 357.542 143.568 356.726C146.067 355.885 148.366 354.594 150.365 352.952C150.881 344.414 153.247 336.301 157.113 328.913V328.903C156.109 326.091 154.566 323.541 152.581 321.399H155.064C158.178 321.399 161.085 320.5 163.534 318.941C165.309 316.668 167.249 314.486 169.332 312.428L169.333 312.426C170.337 310.348 170.898 308.027 170.898 305.564C170.898 305.272 170.865 304.981 170.856 304.69H178.561C181.893 302.315 185.468 300.192 189.24 298.342C189.973 297.983 190.698 297.6 191.405 297.201C192.056 295.684 192.422 294.018 192.422 292.27C192.422 290.895 192.189 289.571 191.773 288.329H194.75C195.136 283.861 196.21 279.564 195.621 274.852H204.575C208.539 274.852 211.884 271.914 212.413 267.987C212.622 266.433 212.731 264.852 212.731 263.248C212.731 241.574 193.122 223.898 168.574 223.023C166.958 228.996 165.092 234.927 163.16 240.849H168.732C173.955 240.849 178.686 242.964 182.11 246.389C185.534 249.812 187.649 254.544 187.649 259.775C187.649 263.215 186.733 266.447 185.117 269.229C181.852 274.885 175.738 278.692 168.732 278.692H160.769C159.561 278.692 158.353 278.716 157.154 278.775C144.892 279.308 133.389 282.582 123.293 287.972C122.118 288.596 120.952 289.254 119.819 289.937C115.629 292.445 111.723 295.343 108.141 298.566C107.658 298.992 107.174 299.433 106.7 299.883C105.467 301.05 104.276 302.257 103.134 303.498C97.9116 309.163 93.605 315.609 90.4313 322.623C88.3572 327.222 86.7662 332.061 85.7249 337.092C84.792 341.607 84.3005 346.281 84.3005 351.054C84.3005 391.012 118.545 423.415 160.769 423.415H226.717C206.157 423.415 187.494 416.322 173.754 404.785C170.27 401.859 165.818 400.328 161.277 400.615Z" fill="#8DA5B1"/>
<path d="M199.445 288.329H191.773C192.189 289.571 192.422 290.895 192.422 292.27C192.422 294.018 192.056 295.684 191.405 297.201C190.698 297.6 189.973 297.983 189.24 298.342C185.468 300.192 181.893 302.315 178.562 304.69H170.856C170.865 304.981 170.898 305.272 170.898 305.564C170.898 308.022 170.34 310.337 169.34 312.411L169.331 312.428C167.249 314.486 165.309 316.668 163.534 318.941C161.085 320.5 158.178 321.399 155.064 321.399H152.581L152.697 321.533C152.93 321.783 153.155 322.041 153.372 322.299L153.422 322.374C153.614 322.599 153.788 322.824 153.963 323.057C154.138 323.29 154.313 323.523 154.48 323.764C154.605 323.948 154.73 324.132 154.838 324.315C154.946 324.464 155.046 324.623 155.138 324.781L155.263 324.98C155.388 325.189 155.504 325.397 155.621 325.605C155.729 325.789 155.829 325.981 155.921 326.172L156.013 326.347C156.112 326.539 156.212 326.739 156.304 326.939C156.387 327.114 156.462 327.289 156.537 327.464C156.604 327.605 156.662 327.747 156.721 327.896C156.787 328.047 156.846 328.188 156.896 328.338C156.97 328.513 157.029 328.696 157.095 328.871L157.112 328.913C154.955 333.045 153.28 337.409 152.114 341.941C129.972 339.383 108.174 338.975 86.7329 335.876C86.7496 333.819 87.0661 331.819 87.6242 329.938C87.7075 329.654 87.7991 329.379 87.8991 329.096L88.0823 328.563C88.7737 326.546 89.5567 324.564 90.4314 322.623C93.6051 315.609 97.9116 309.163 103.134 303.498C104.276 302.257 105.467 301.05 106.7 299.883C107.174 299.433 107.658 298.992 108.141 298.566C111.723 295.343 115.629 292.445 119.819 289.937C120.952 289.254 122.118 288.596 123.293 287.972C133.389 282.582 144.892 279.308 157.154 278.775C158.353 278.716 159.561 278.692 160.769 278.692H168.732C171.673 278.692 174.447 278.017 176.93 276.818C184.741 281.598 193.197 285.172 201.827 288.021C201.061 288.213 200.269 288.329 199.445 288.329Z" fill="#ADB6BA"/>
<path d="M163.654 400.65C163.025 402.148 162.114 403.498 160.985 404.631C158.736 406.872 155.629 408.263 152.197 408.263H118.236C115.238 408.263 112.48 407.197 110.34 405.43C113.056 407.693 115.946 409.775 118.984 411.657L118.99 411.661C120.803 412.783 122.668 413.833 124.581 414.808C127.452 416.271 130.637 417.009 133.858 417.009H152.197C158.201 417.009 163.625 414.496 167.478 410.47C170.865 406.933 168.535 401.032 163.654 400.65Z" fill="#728894"/>
<path d="M118.233 408.267H152.2C159.058 408.267 164.618 402.706 164.618 395.848C164.618 388.989 159.058 383.429 152.2 383.429H118.233C111.374 383.429 105.815 388.989 105.815 395.848C105.815 402.706 111.374 408.267 118.233 408.267Z" fill="#8DA5B1"/>
<path d="M209 278.775C209 278.9 209 279.017 208.99 279.142C208.849 282.823 206.633 285.971 203.476 287.438C202.252 288.013 200.885 288.329 199.444 288.329H166.708C164.067 288.329 161.677 287.263 159.952 285.531C158.22 283.806 157.154 281.416 157.154 278.775C158.353 278.716 159.561 278.692 160.769 278.692H168.732C174.373 278.692 179.436 276.223 182.9 272.309C184.597 270.389 186.989 269.229 189.55 269.229H199.444C202.085 269.229 204.476 270.295 206.2 272.028C207.933 273.751 209 276.134 209 278.775Z" fill="#ADB6BA"/>
<path d="M192.579 291.37V291.928C192.579 293.802 192.17 295.593 191.43 297.193C189.438 301.566 185.023 304.605 179.9 304.605H153.42C149.913 304.605 146.747 303.189 144.457 300.89C142.158 298.6 140.741 295.427 140.741 291.928C140.741 291.636 140.751 291.346 140.77 291.059C141.182 284.695 146.388 279.659 152.735 279.021C154.253 278.868 155.784 278.757 157.326 278.692H179.9C186.902 278.692 192.579 284.368 192.579 291.37Z" fill="#ADB6BA"/>
<path d="M124.759 321.401H155.064C163.808 321.401 170.896 314.311 170.896 305.567V305.567C170.896 296.823 163.808 289.733 155.064 289.733H124.759C116.014 289.733 108.925 296.823 108.925 305.567V305.567C108.925 314.311 116.014 321.401 124.759 321.401Z" fill="#ADB6BA"/>
<path d="M170.217 301.011C169.73 299.418 168.984 297.906 167.994 296.528C164.999 292.355 160.012 289.733 154.608 289.733H124.759C117.77 289.733 111.839 294.26 109.738 300.542C109.614 300.915 109.503 301.292 109.407 301.672C108.678 304.548 110.878 307.338 113.843 307.338H114.52C116.37 307.338 117.861 306.101 118.479 304.391C119.287 302.148 121.292 300.562 123.675 300.562H156.013C158.423 300.562 160.508 302.048 161.281 304.131C161.989 306.036 163.871 307.245 165.9 307.12L165.995 307.114C169.044 306.925 171.11 303.932 170.217 301.011Z" fill="#EAEEF0"/>
<path d="M136.616 357.868H108.456C96.4555 357.868 86.7271 348.139 86.7271 336.139C86.7271 324.139 96.4555 314.411 108.456 314.411H136.616C148.616 314.411 158.345 324.139 158.345 336.139C158.345 348.139 148.616 357.868 136.616 357.868Z" fill="#ADB6BA"/>
<path d="M107.06 326.906H138.012C141.657 326.906 144.851 328.844 146.63 331.744C147.812 333.673 150.082 334.604 152.294 334.129L152.417 334.103C155.843 333.378 157.654 329.671 156.105 326.531C152.56 319.35 145.167 314.411 136.616 314.411H108.456C100.384 314.411 93.3426 318.813 89.5967 325.348C88.0448 328.054 89.1744 331.532 92.0307 332.785C92.1406 332.833 92.2506 332.881 92.3605 332.927C94.6454 333.904 97.3776 333.213 98.8129 331.185C100.644 328.598 103.656 326.906 107.06 326.906Z" fill="#EAEEF0"/>
<path d="M149.436 344.322C147.668 342.825 145.167 342.747 143.18 343.942C141.669 344.85 139.902 345.373 138.012 345.373H107.06C103.708 345.373 100.739 343.733 98.8995 341.214C97.4151 339.179 94.7903 338.321 92.4713 339.304C92.3247 339.366 92.1772 339.429 92.0315 339.493C89.1535 340.756 88.0514 344.25 89.6208 346.973C93.3726 353.484 100.401 357.868 108.456 357.868H136.616C141.502 357.868 146.007 356.251 149.631 353.526C152.533 351.345 152.601 347.014 149.835 344.661C149.703 344.548 149.569 344.436 149.436 344.322Z" fill="#8DA5B1"/>
<path d="M104.364 387.632L138.885 387.689C147.629 387.689 154.718 380.599 154.718 371.856C154.718 363.111 147.629 356.022 138.885 356.022L104.364 355.965C95.6192 355.965 88.5305 363.054 88.5305 371.798C88.5305 380.544 95.6192 387.632 104.364 387.632Z" fill="#8DA5B1"/>
<path d="M102.4 368.461L140.835 368.523C142.785 368.523 144.216 369.957 144.501 371.636C144.828 373.568 146.375 375.071 148.262 375.593L148.362 375.62C151.666 376.534 154.951 373.909 154.661 370.493C154.521 368.84 154.12 367.22 153.473 365.692C151.069 360.009 145.443 356.023 138.885 356.023L104.364 355.966C99.6483 355.966 95.4225 358.03 92.5271 361.303C89.9798 364.183 91.1959 368.767 94.8269 370.03C95.0369 370.103 95.2459 370.175 95.4559 370.247C97.0585 370.794 98.7736 370.347 100.09 369.283C100.722 368.771 101.525 368.464 102.4 368.461Z" fill="#EAEEF0"/>
<path d="M152.197 383.431C156.658 383.447 158.689 389.073 155.22 391.876C150.903 395.365 145.155 397.684 138.87 397.684C122.382 397.655 113.567 397.646 108.756 397.634C104.426 397.625 100.339 395.583 97.7891 392.084C94.7537 387.917 92.1698 383.435 90.0981 378.708L90.1231 378.684C92.6887 383.973 98.0948 387.629 104.367 387.629L108.932 387.638L138.886 387.688C143.06 387.688 146.858 386.071 149.682 383.431H152.197Z" fill="#728894"/>
<path d="M177.762 288.329H169.263C166.626 288.329 164.488 286.191 164.488 283.554C164.488 280.917 166.626 278.779 169.263 278.779H177.762C180.399 278.779 182.537 280.917 182.537 283.554C182.537 286.191 180.399 288.329 177.762 288.329Z" fill="#EAEEF0"/>
<path d="M159.509 283.53H156.07C154.757 283.53 153.694 282.466 153.694 281.154C153.694 279.843 154.757 278.779 156.07 278.779H159.509C160.822 278.779 161.885 279.843 161.885 281.154C161.885 282.466 160.822 283.53 159.509 283.53Z" fill="#EAEEF0"/>
<path d="M197.883 263.638H193.918C192.407 263.638 191.181 262.412 191.181 260.901C191.181 259.389 192.407 258.164 193.918 258.164H197.883C199.394 258.164 200.619 259.389 200.619 260.901C200.619 262.412 199.394 263.638 197.883 263.638Z" fill="#ADB6BA"/>
<path d="M214.228 412.864L167.873 408.91C159.865 408.226 152.819 414.165 152.136 422.174C151.973 424.082 153.388 425.76 155.295 425.922L223.744 431.761C225.651 431.923 227.329 430.51 227.492 428.602C228.175 420.593 222.236 413.547 214.228 412.864Z" fill="#23445A"/>
<path d="M144.682 427.267H159.733C163.429 427.267 166.424 424.272 166.424 420.576C166.424 416.882 163.429 413.886 159.733 413.886H157.29C151.005 415.258 145.862 419.679 143.487 425.524C143.149 426.357 143.783 427.267 144.682 427.267Z" fill="#EAEEF0"/>
<path d="M154.841 419.575H158.941C160.718 419.575 162.397 419.989 163.888 420.726C165.13 421.337 166.566 420.223 166.188 418.893C166.133 418.698 166.068 418.503 165.991 418.306C164.936 415.589 162.212 413.886 159.296 413.886H157.29C153.02 414.818 149.282 417.16 146.578 420.396C145.872 421.242 146.819 422.465 147.811 421.989C150.028 420.929 152.382 420.111 154.841 419.575Z" fill="#B5BCC1"/>
<path d="M233.864 419.864H209.533C189.68 419.864 173.587 403.771 173.587 383.918C173.587 364.066 189.68 347.973 209.533 347.973H233.864C253.716 347.973 269.81 364.066 269.81 383.918C269.81 403.771 253.716 419.864 233.864 419.864Z" fill="#588DB0"/>
<path d="M233.864 347.973H209.533C189.68 347.973 173.587 364.067 173.587 383.918C173.587 386.339 173.828 388.701 174.286 390.986C175.208 395.593 179.891 398.368 184.412 397.092L184.558 397.05C188.181 396.023 190.594 392.57 190.32 388.813C190.272 388.153 190.247 387.486 190.247 386.814C190.247 371.863 202.368 359.742 217.32 359.742H238.538C240.67 359.742 242.618 358.541 243.585 356.641L243.633 356.548C245.381 353.102 243.211 348.992 239.393 348.399C237.591 348.119 235.745 347.973 233.864 347.973Z" fill="#86ACC6"/>
<path d="M233.864 408.203H220.07C216.937 408.203 214.376 410.701 214.299 413.833L214.297 413.95C214.217 417.193 216.823 419.865 220.068 419.865H233.864C249.974 419.865 263.603 409.266 268.171 394.662C269.117 391.636 267.337 388.419 264.3 387.505L264.176 387.468C261.133 386.557 257.962 388.274 256.995 391.299C253.865 401.091 244.682 408.203 233.864 408.203Z" fill="#38607A"/>
<path d="M225.941 415.675H185.834C177.797 415.675 171.28 422.192 171.28 430.23C171.28 432.144 172.833 433.696 174.746 433.696H239.862C240.994 433.696 241.912 432.779 241.912 431.646C241.912 422.825 234.761 415.675 225.941 415.675Z" fill="#588DB0"/>
<path d="M161.049 433.696H176.099C179.795 433.696 182.79 430.701 182.79 427.005C182.79 423.31 179.795 420.316 176.099 420.316H173.657C167.371 421.687 162.227 426.108 159.854 431.952C159.515 432.785 160.15 433.696 161.049 433.696Z" fill="#EAEEF0"/>
<path d="M171.207 426.004H175.308C177.085 426.004 178.763 426.418 180.256 427.154C181.496 427.766 182.933 426.653 182.554 425.321C182.499 425.128 182.434 424.932 182.357 424.734C181.303 422.017 178.577 420.315 175.663 420.315H173.657C169.387 421.247 165.648 423.588 162.944 426.826C162.239 427.671 163.185 428.894 164.178 428.418C166.393 427.358 168.747 426.54 171.207 426.004Z" fill="#B5BCC1"/>
<path d="M186.352 167.948L184.271 181.088L195.61 182.884L188.299 167.663C187.862 166.752 186.511 166.95 186.352 167.948Z" fill="#588DB0"/>
<path d="M176.94 167.83L173.889 181.817L161.818 179.185L175.099 166.782C175.893 166.04 177.172 166.766 176.94 167.83Z" fill="#38607A"/>
<path d="M147.129 199.41L142.131 205.396C140.729 207.076 140.729 209.519 142.131 211.2L147.129 217.185C148.939 219.353 152.271 219.353 154.081 217.185L159.079 211.2C160.481 209.519 160.481 207.076 159.079 205.396L154.081 199.41C152.271 197.242 148.939 197.242 147.129 199.41Z" fill="#588DB0"/>
<path d="M171.894 133.906L170.432 147.747C170.182 150.109 169.394 152.382 168.127 154.392L152.032 179.947C150.923 181.707 150.36 183.756 150.414 185.835L150.65 194.779C150.769 199.36 154.581 202.977 159.162 202.856C163.743 202.736 167.36 198.925 167.241 194.343L166.97 184.007C166.938 182.818 167.109 181.633 167.474 180.502L176.601 152.164C176.815 151.503 176.868 150.799 176.759 150.112L174.172 133.846C173.961 132.519 172.036 132.57 171.894 133.906Z" fill="#38607A"/>
<path d="M176.802 176.243H175.057C158.712 176.243 145.461 189.494 145.461 205.84V210.755C145.461 213.342 145.797 215.851 146.422 218.241C146.838 219.831 146.81 221.506 146.25 223.05L134.321 255.941L168.254 268.248L174.681 250.527C176.708 244.94 181.17 240.632 186.765 238.632C198.209 234.542 206.398 223.606 206.398 210.755V205.84C206.398 189.494 193.148 176.243 176.802 176.243Z" fill="#588DB0"/>
<path d="M133.284 261.233L131.885 262.076C129.698 263.394 126.855 262.69 125.537 260.502L124.399 258.615C123.08 256.427 123.784 253.584 125.972 252.266L127.37 251.423C129.558 250.105 132.401 250.809 133.719 252.996L134.857 254.884C136.176 257.072 135.471 259.914 133.284 261.233Z" fill="#38607A"/>
<path d="M148.896 280.142L136.049 275.483C128.276 272.663 124.261 264.076 127.08 256.304C129.9 248.531 138.486 244.516 146.259 247.335L159.105 251.995C166.878 254.814 170.894 263.401 168.075 271.173C165.255 278.946 156.669 282.962 148.896 280.142Z" fill="#588DB0"/>
<path d="M137.609 246.866C140.382 246.189 143.375 246.29 146.259 247.335L151.149 249.109C153.087 249.812 155.227 248.811 155.93 246.873L159.824 236.133L161.223 232.274C162.941 227.538 162.143 222.252 159.102 218.233L159.057 218.175C156.801 215.176 155.459 211.46 155.459 207.421V202.506C155.459 198.072 157.08 194.007 159.76 190.873C161.573 188.755 161.736 185.689 160.016 183.491C159.077 182.293 157.295 182.119 156.126 183.093C149.612 188.523 145.464 196.7 145.464 205.837V210.753C145.464 214.201 146.055 217.517 147.138 220.599L137.609 246.866Z" fill="#86ACC6"/>
<path d="M151.703 267.653C150.207 266.156 150.207 263.729 151.703 262.232L154.112 259.824C155.609 258.327 158.036 258.327 159.533 259.824C161.03 261.321 161.03 263.748 159.533 265.245L157.125 267.653C155.628 269.15 153.2 269.15 151.703 267.653Z" fill="#23445A"/>
<path d="M148.391 261.75C149.334 262.849 151 262.923 152.028 261.906C152.117 261.816 152.213 261.724 152.313 261.624L154.112 259.825C154.86 259.076 155.842 258.702 156.823 258.702H156.878C158.007 258.704 159.006 257.975 159.348 256.9C159.842 255.349 158.711 253.755 157.084 253.707C156.933 253.703 156.781 253.702 156.629 253.705C154.262 253.756 152.027 254.84 150.353 256.515C149.508 257.361 148.921 257.937 148.486 258.376C147.586 259.284 147.527 260.735 148.356 261.708L148.391 261.75Z" fill="#86ACC6"/>
<path d="M173.371 219.256C171.977 219.256 170.575 218.938 169.283 218.281C167.847 217.552 167.275 215.796 168.005 214.361C168.734 212.926 170.487 212.354 171.925 213.083C173.199 213.732 174.772 213.457 175.751 212.42C176.729 211.381 176.91 209.796 176.189 208.563C175.377 207.173 175.846 205.387 177.236 204.574C178.625 203.761 180.411 204.23 181.224 205.621C183.24 209.073 182.734 213.513 179.992 216.42C178.245 218.273 175.821 219.256 173.371 219.256Z" fill="#23445A"/>
<path d="M215.764 125.03L213.116 139.914C212.664 142.454 211.635 144.857 210.11 146.937L190.709 173.387C189.372 175.209 188.605 177.386 188.505 179.643L188.073 189.35C187.85 194.323 191.702 198.534 196.676 198.756C201.648 198.978 205.859 195.126 206.081 190.153L206.581 178.933C206.639 177.642 206.915 176.372 207.396 175.174L219.461 145.174C219.743 144.473 219.856 143.716 219.79 142.962L218.236 125.141C218.109 123.687 216.019 123.594 215.764 125.03Z" fill="#588DB0"/>
<path d="M195.375 181.16C195.306 179.889 195.614 178.626 196.263 177.531L205.321 162.202C206.226 160.671 206.563 158.865 206.239 157.116L206.227 157.05C205.958 155.588 204.088 155.146 203.209 156.344L190.709 173.386C189.372 175.209 188.605 177.385 188.505 179.643L188.253 185.273C188.174 187.066 189.415 188.65 191.175 189.002L191.252 189.018C193.584 189.484 195.729 187.625 195.599 185.251L195.375 181.16Z" fill="#82B8DC"/>
<path d="M168.162 183.099C168.425 183.02 168.689 182.945 168.955 182.875C170.215 182.54 171.115 181.442 171.154 180.139L171.156 180.079C171.208 178.184 169.424 176.725 167.589 177.202C167.199 177.304 166.814 177.413 166.431 177.529C165.019 177.958 164.186 179.43 164.493 180.874L164.506 180.933C164.865 182.583 166.546 183.589 168.162 183.099Z" fill="#588DB0"/>
<path d="M177.127 188.293C177.688 190.125 176.657 192.065 174.825 192.627C172.993 193.189 171.052 192.158 170.491 190.325C169.928 188.493 170.96 186.553 172.792 185.99C174.625 185.429 176.566 186.459 177.127 188.293Z" fill="#82B8DC"/>
<path d="M168.881 198.84C169.25 200.041 168.573 201.314 167.372 201.682C166.171 202.05 164.898 201.375 164.53 200.173C164.162 198.972 164.837 197.7 166.038 197.331C167.24 196.963 168.512 197.638 168.881 198.84Z" fill="#86ACC6"/>
<path d="M185.504 190.666C185.872 191.868 185.196 193.14 183.994 193.507C182.793 193.876 181.52 193.201 181.153 191.999C180.784 190.797 181.459 189.525 182.661 189.157C183.863 188.788 185.135 189.464 185.504 190.666Z" fill="#86ACC6"/>
<path d="M197.257 201.779C197.759 203.419 196.837 205.156 195.197 205.658C193.557 206.161 191.821 205.238 191.319 203.599C190.816 201.959 191.739 200.222 193.378 199.719C195.017 199.217 196.754 200.139 197.257 201.779Z" fill="#23445A"/>
<path d="M148.176 301.76L157.522 299.833C159.281 299.47 160.413 297.75 160.051 295.99C159.688 294.23 157.967 293.098 156.208 293.461L149.159 294.915C145.316 295.706 142.226 298.92 142.119 302.842C142.091 303.904 142.261 304.888 142.582 305.788C142.81 306.424 143.694 306.407 143.88 305.756C144.441 303.793 146.035 302.201 148.176 301.76Z" fill="#588DB0"/>
<path d="M155.278 311.837L164.65 310.042C166.415 309.703 167.57 307.999 167.232 306.234C166.894 304.469 165.189 303.313 163.425 303.652L156.356 305.006C152.503 305.744 149.369 308.914 149.207 312.835C149.164 313.895 149.32 314.882 149.629 315.786C149.847 316.426 150.732 316.421 150.927 315.773C151.515 313.817 153.131 312.248 155.278 311.837Z" fill="#588DB0"/>
<path d="M165.976 307.41L155.745 300.493C154.271 299.498 153.884 297.495 154.88 296.022C155.876 294.548 157.877 294.16 159.352 295.157L169.583 302.072C171.058 303.068 171.445 305.071 170.448 306.545C169.452 308.018 167.45 308.405 165.976 307.41Z" fill="#588DB0"/>
<path d="M185.685 318.485L166.287 310.777C163.861 309.812 162.676 307.063 163.639 304.637C164.502 302.47 166.815 301.253 169.088 301.774L189.435 306.428C193.381 307.331 195.479 311.652 193.746 315.31C192.317 318.329 188.789 319.718 185.685 318.485Z" fill="#588DB0"/>
<path d="M186.931 305.147L213.718 296.03C218.531 294.391 223.76 296.965 225.399 301.777C227.19 307.04 223.942 312.679 218.489 313.769L190.743 319.318C187.124 320.042 183.528 317.97 182.34 314.477C181.031 310.633 183.087 306.455 186.931 305.147Z" fill="#588DB0"/>
<path d="M190.632 303.887C189.289 304.345 188.518 305.752 188.857 307.131L188.871 307.183C189.239 308.681 190.77 309.581 192.258 309.174L194.396 308.59C195.923 308.173 196.802 306.574 196.337 305.06L196.32 305.004C195.856 303.491 194.233 302.661 192.735 303.172L190.632 303.887Z" fill="#86ACC6"/>
<path d="M220.749 296.487C219.5 295.87 218.111 295.536 216.685 295.536C215.702 295.536 214.702 295.695 213.719 296.03L201.421 300.215C199.749 300.784 198.883 302.641 199.552 304.275L199.574 304.331C200.163 305.788 201.736 306.584 203.251 306.17L215.389 302.853C215.751 302.754 216.12 302.714 216.487 302.737C216.912 302.764 217.318 302.868 217.688 303.041C218.983 303.643 220.499 303.488 221.545 302.515L221.597 302.467C223.472 300.723 223.046 297.621 220.749 296.487Z" fill="#86ACC6"/>
<path d="M124.52 302.51L116.662 297.097C115.183 296.077 114.809 294.052 115.828 292.572C116.848 291.093 118.873 290.72 120.353 291.738L126.28 295.822C129.511 298.046 131.106 302.21 129.677 305.864C129.291 306.854 128.75 307.694 128.104 308.397C127.647 308.895 126.839 308.534 126.921 307.864C127.169 305.837 126.321 303.75 124.52 302.51Z" fill="#588DB0"/>
<path d="M114.055 309.026L106.122 303.724C104.629 302.725 104.227 300.705 105.225 299.212C106.224 297.718 108.244 297.316 109.738 298.315L115.721 302.314C118.983 304.495 120.636 308.635 119.259 312.308C118.886 313.303 118.357 314.151 117.721 314.864C117.27 315.367 116.459 315.018 116.531 314.347C116.751 312.316 115.873 310.242 114.055 309.026Z" fill="#588DB0"/>
<path d="M105.925 300.783L118.041 298.396C119.787 298.053 120.923 296.359 120.579 294.613C120.236 292.869 118.542 291.732 116.796 292.076L104.679 294.463C102.934 294.807 101.798 296.5 102.142 298.246C102.485 299.99 104.18 301.127 105.925 300.783Z" fill="#588DB0"/>
<path d="M100.099 303.671L104.418 303.766C106.978 303.82 109.099 301.791 109.154 299.229C109.199 297.207 107.927 295.39 106.012 294.738L101.923 293.347C98.4613 292.169 94.8744 294.763 94.9094 298.42C94.9369 301.285 97.2351 303.61 100.099 303.671Z" fill="#588DB0"/>
<path d="M180.454 346.645C180.454 349.607 178.052 352.007 175.091 352.007C172.13 352.007 169.729 349.607 169.729 346.645C169.729 343.683 172.13 341.283 175.091 341.283C178.052 341.283 180.454 343.683 180.454 346.645Z" fill="#588DB0"/>
<path d="M181.946 332.752C181.946 334.483 180.543 335.885 178.813 335.885C177.084 335.885 175.682 334.483 175.682 332.752C175.682 331.023 177.084 329.621 178.813 329.621C180.543 329.621 181.946 331.023 181.946 332.752Z" fill="#86ACC6"/>
<path d="M166.671 363.929C166.671 365.724 165.214 367.18 163.419 367.18C161.624 367.18 160.168 365.724 160.168 363.929C160.168 362.133 161.624 360.677 163.419 360.677C165.214 360.677 166.671 362.133 166.671 363.929Z" fill="#588DB0"/>
<path d="M218.822 385.715C218.822 388.902 216.239 391.485 213.053 391.485C209.866 391.485 207.283 388.902 207.283 385.715C207.283 382.529 209.866 379.947 213.053 379.947C216.239 379.947 218.822 382.529 218.822 385.715Z" fill="#86ACC6"/>
<path d="M238.312 385.05C238.312 387.178 236.587 388.903 234.459 388.903C232.331 388.903 230.606 387.178 230.606 385.05C230.606 382.923 232.331 381.198 234.459 381.198C236.587 381.198 238.312 382.923 238.312 385.05Z" fill="#38607A"/>
<path d="M224.522 372.984C224.522 374.659 223.165 376.017 221.491 376.017C219.816 376.017 218.459 374.659 218.459 372.984C218.459 371.31 219.816 369.952 221.491 369.952C223.165 369.952 224.522 371.31 224.522 372.984Z" fill="#82B8DC"/>
<path d="M245.184 273.316C245.184 275.63 243.307 277.506 240.993 277.506C238.678 277.506 236.802 275.63 236.802 273.316C236.802 271.002 238.678 269.125 240.993 269.125C243.307 269.125 245.184 271.002 245.184 273.316Z" fill="#38607A"/>
<path d="M238.182 293.711C238.182 295.242 236.94 296.483 235.409 296.483C233.878 296.483 232.637 295.242 232.637 293.711C232.637 292.18 233.878 290.939 235.409 290.939C236.94 290.939 238.182 292.18 238.182 293.711Z" fill="#38607A"/>
<path d="M223.944 227.418C223.944 228.949 222.703 230.19 221.172 230.19C219.641 230.19 218.4 228.949 218.4 227.418C218.4 225.887 219.641 224.646 221.172 224.646C222.703 224.646 223.944 225.887 223.944 227.418Z" fill="#588DB0"/>
<path d="M245.656 299.542C245.656 300.533 244.853 301.336 243.863 301.336C242.872 301.336 242.069 300.533 242.069 299.542C242.069 298.552 242.872 297.749 243.863 297.749C244.853 297.749 245.656 298.552 245.656 299.542Z" fill="#38607A"/>
<path d="M245.247 316.262C245.247 318.612 243.343 320.516 240.993 320.516C238.642 320.516 236.738 318.612 236.738 316.262C236.738 313.912 238.642 312.007 240.993 312.007C243.343 312.007 245.247 313.912 245.247 316.262Z" fill="#82B8DC"/>
<path d="M249.649 329.31C249.649 331.339 248.004 332.984 245.975 332.984C243.947 332.984 242.302 331.339 242.302 329.31C242.302 327.281 243.947 325.636 245.975 325.636C248.004 325.636 249.649 327.281 249.649 329.31Z" fill="#86ACC6"/>
<path d="M222.882 313.708C222.882 314.79 222.004 315.668 220.922 315.668C219.839 315.668 218.962 314.79 218.962 313.708C218.962 312.625 219.839 311.748 220.922 311.748C222.004 311.748 222.882 312.625 222.882 313.708Z" fill="#38607A"/>
<path d="M215.896 333.718C215.896 335.347 214.576 336.668 212.946 336.668C211.317 336.668 209.996 335.347 209.996 333.718C209.996 332.088 211.317 330.768 212.946 330.768C214.576 330.768 215.896 332.088 215.896 333.718Z" fill="#86ACC6"/>
<circle cx="194.5" cy="92.5" r="6.5" fill="#FECF73"/>
<circle cx="230" cy="79" r="9" fill="#FECF73"/>
<circle cx="185.5" cy="127.5" r="3.5" fill="#FECF73"/>
<path d="M418.715 51.568H428.123V34.288C428.123 33.52 427.867 33.136 427.355 33.136C426.587 33.136 425.307 34.2453 423.515 36.464C421.723 38.64 420.081 41.1147 418.587 43.888C417.094 46.6613 416.347 48.7307 416.347 50.096C416.347 50.6507 416.518 51.0347 416.859 51.248C417.243 51.4613 417.862 51.568 418.715 51.568ZM439.387 58.736H438.171V63.408C438.171 65.712 438.854 67.2267 440.219 67.952C438.683 69.7867 436.742 70.704 434.395 70.704C430.214 70.704 428.123 68.1653 428.123 63.088V58.736H413.659C410.289 58.736 408.603 57.3707 408.603 54.64C408.603 51.44 410.011 47.2587 412.827 42.096C415.643 36.8907 419.014 32.2827 422.939 28.272C426.907 24.2613 430.299 22.256 433.115 22.256C436.486 22.256 438.171 24.816 438.171 29.936V51.568H440.219C442.353 51.568 443.867 51.184 444.763 50.416C445.531 51.2693 445.915 52.3787 445.915 53.744C445.915 55.0667 445.297 56.24 444.059 57.264C442.865 58.2453 441.307 58.736 439.387 58.736Z" fill="#FECF73"/>
<path d="M337.31 50.92C334.11 46.3973 332.51 40.5733 332.51 33.448C332.51 26.3227 334.11 20.52 337.31 16.04C340.51 11.5173 345.224 9.256 351.454 9.256C355.635 9.256 359.176 10.3653 362.078 12.584C365.022 14.76 367.155 17.64 368.478 21.224C369.8 24.7653 370.462 28.84 370.462 33.448C370.462 38.056 369.8 42.152 368.478 45.736C367.155 49.2773 365.022 52.1573 362.078 54.376C359.176 56.5947 355.635 57.704 351.454 57.704C345.224 57.704 340.51 55.4427 337.31 50.92ZM350.43 15.848C345.31 15.848 342.75 20.584 342.75 30.056C342.75 31.1227 342.792 32.2533 342.878 33.448C343.432 45.224 346.611 51.112 352.414 51.112C357.576 51.112 360.158 46.3333 360.158 36.776C360.158 35.752 360.136 34.6427 360.094 33.448C359.539 21.7147 356.318 15.848 350.43 15.848Z" fill="#FECF73"/>
<path d="M271.715 58.568H281.123V41.288C281.123 40.52 280.867 40.136 280.355 40.136C279.587 40.136 278.307 41.2453 276.515 43.464C274.723 45.64 273.081 48.1147 271.587 50.888C270.094 53.6613 269.347 55.7307 269.347 57.096C269.347 57.6507 269.518 58.0347 269.859 58.248C270.243 58.4613 270.862 58.568 271.715 58.568ZM292.387 65.736H291.171V70.408C291.171 72.712 291.854 74.2267 293.219 74.952C291.683 76.7867 289.742 77.704 287.395 77.704C283.214 77.704 281.123 75.1653 281.123 70.088V65.736H266.659C263.289 65.736 261.603 64.3707 261.603 61.64C261.603 58.44 263.011 54.2587 265.827 49.096C268.643 43.8907 272.014 39.2827 275.939 35.272C279.907 31.2613 283.299 29.256 286.115 29.256C289.486 29.256 291.171 31.816 291.171 36.936V58.568H293.219C295.353 58.568 296.867 58.184 297.763 57.416C298.531 58.2693 298.915 59.3787 298.915 60.744C298.915 62.0667 298.297 63.24 297.059 64.264C295.865 65.2453 294.307 65.736 292.387 65.736Z" fill="#FECF73"/>
</svg>
