<svg width="32" height="32" viewBox="0 0 32 32" fill="none" xmlns="http://www.w3.org/2000/svg">
<path d="M21.3336 15.3333H20.667V16.6667H21.3336C21.7003 16.6667 22.0003 16.3667 22.0003 16C22.0003 15.6333 21.7003 15.3333 21.3336 15.3333Z" fill="#F7F7F5"/>
<path d="M28.3333 6.66667H13.748L11.3733 4.29333C11.1867 4.10533 10.932 4 10.6667 4H3.66667C1.644 4 0 5.644 0 7.66667V24.3333C0 26.356 1.644 28 3.66667 28H28.3333C30.356 28 32 26.356 32 24.3333V10.3333C32 8.31067 30.356 6.66667 28.3333 6.66667ZM11 19.3333C11.552 19.3333 12 19.7813 12 20.3333C12 20.8853 11.552 21.3333 11 21.3333H7.66667C7.312 21.3333 6.984 21.1453 6.80533 20.84C6.62533 20.5347 6.62 20.1573 6.79333 19.848L9.30133 15.3333H7.66667C7.11467 15.3333 6.66667 14.8853 6.66667 14.3333C6.66667 13.7813 7.11467 13.3333 7.66667 13.3333H11C11.3547 13.3333 11.6827 13.5213 11.8613 13.8267C12.0413 14.132 12.0467 14.5093 11.8733 14.8187L9.36533 19.3333H11ZM16.3333 20.3333C16.3333 20.8853 15.8853 21.3333 15.3333 21.3333C14.7813 21.3333 14.3333 20.8853 14.3333 20.3333V14.3333C14.3333 13.7813 14.7813 13.3333 15.3333 13.3333C15.8853 13.3333 16.3333 13.7813 16.3333 14.3333V20.3333ZM21.3333 18.6667H20.6667V20.3333C20.6667 20.8853 20.2187 21.3333 19.6667 21.3333C19.1147 21.3333 18.6667 20.8853 18.6667 20.3333V14.3333C18.6667 13.7813 19.1147 13.3333 19.6667 13.3333H21.3333C22.804 13.3333 24 14.5293 24 16C24 17.4707 22.804 18.6667 21.3333 18.6667Z" fill="#F7F7F5"/>
</svg>
