<svg width="20" height="20" viewBox="0 0 20 20" fill="none" xmlns="http://www.w3.org/2000/svg">
<path d="M18.2738 1.77451C16.6134 0.114139 13.7902 0.247764 11.9648 2.07314L7.83504 6.20289C7.54598 6.49195 7.30341 6.79458 7.10673 7.12651C6.44235 8.19664 6.22641 9.43433 6.47985 10.5633C6.64229 11.2874 6.98798 11.9635 7.53641 12.5119C7.79666 12.7721 8.08548 12.9852 8.3936 13.1573L9.93966 11.6113C10.0102 11.5407 10.0723 11.4607 10.1242 11.3756C9.77735 11.2911 9.45216 11.1238 9.18835 10.86C8.63241 10.304 8.48198 9.49276 8.71454 8.73426C8.82635 8.36695 9.04029 8.00276 9.3376 7.70545L13.4674 3.5757C14.3759 2.66714 15.7955 2.60001 16.6219 3.42639C17.4482 4.25276 17.3811 5.67233 16.4725 6.58089L14.4675 8.58589C14.5335 8.77458 14.5949 8.9657 14.6394 9.16389C14.802 9.88776 14.8025 10.6503 14.6595 11.3991L17.9752 8.08358C19.8005 6.25814 19.9342 3.43489 18.2738 1.77451ZM12.4677 7.53164C12.2074 7.27139 11.9186 7.05833 11.6105 6.8862L10.0644 8.43226C9.99385 8.50283 9.93179 8.58289 9.87991 8.66783C10.2267 8.75239 10.5519 8.91976 10.8157 9.18358C11.3716 9.73951 11.5221 10.5507 11.2895 11.3093C11.1777 11.6765 10.9637 12.0408 10.6664 12.3381L6.53666 16.4678C5.6281 17.3763 4.20854 17.4435 3.38216 16.6171C2.55573 15.7907 2.62298 14.3711 3.53148 13.4626L5.53648 11.4576C5.47048 11.269 5.4091 11.0778 5.3646 10.8796C5.20198 10.1558 5.20148 9.3932 5.34448 8.64439L2.02885 11.96C0.203539 13.7853 0.0698515 16.6086 1.73023 18.269C3.3906 19.9294 6.21391 19.7957 8.03923 17.9704L12.169 13.8406C12.4581 13.5515 12.7006 13.249 12.8973 12.917C13.5617 11.8469 13.7776 10.6092 13.5242 9.4802C13.3617 8.7562 13.0161 8.08008 12.4677 7.53164Z" fill="#F7F7F5"/>
</svg>
