<svg width="36" height="44" viewBox="0 0 36 44" fill="none" xmlns="http://www.w3.org/2000/svg">
<path d="M17.1964 1.86281C17.5604 1.1097 18.6331 1.1097 18.9971 1.86281L28.3871 21.2903H7.80646L17.1964 1.86281Z" fill="#F7F7F5" fill-opacity="0.7"/>
<path d="M19.5 2L33.0188 14.2857C33.4031 14.6349 33.4562 15.2202 33.1409 15.6328L29.2253 20.7581L19.5 2Z" fill="#F7F7F5"/>
<path d="M16.5 2L3.13153 14.2854C2.75075 14.6353 2.6996 15.2178 3.01355 15.6288L6.93232 20.7581L16.5 2Z" fill="#F7F7F5"/>
<path d="M17.0313 41.4806C17.3953 42.2337 18.468 42.2337 18.832 41.4806L28.222 22.0531H7.64136L17.0313 41.4806Z" fill="#F7F7F5"/>
<path d="M19.3349 41.3434L32.8537 29.0577C33.238 28.7085 33.2911 28.1232 32.9758 27.7106L29.0602 22.5854L19.3349 41.3434Z" fill="#F7F7F5" fill-opacity="0.8"/>
<path d="M16.3349 41.3434L2.96643 29.0581C2.58565 28.7081 2.5345 28.1256 2.84845 27.7147L6.76722 22.5854L16.3349 41.3434Z" fill="#F7F7F5" fill-opacity="0.8"/>
<path d="M29.5594 21.6613L33.8175 28V15.5L29.5594 21.6613Z" fill="#F7F7F5"/>
<path d="M6.25808 21.6613L2 28V15.5L6.25808 21.6613Z" fill="#F7F7F5"/>
<path d="M16.8516 13.0332C16.916 13.0371 17.0381 13.0479 17.2178 13.0654C17.3975 13.0811 17.5156 13.0889 17.5723 13.0889H19.4795L19.5762 13.502L17.6807 17.6299L16.9307 17.3721L18.2783 14.7266C18.2979 14.6875 18.3359 14.5771 18.3926 14.3955C18.4492 14.2119 18.5 14.04 18.5449 13.8799H17.625C17.5762 13.8799 17.4648 13.8877 17.291 13.9033C17.2754 13.96 17.2588 14.0098 17.2412 14.0527C17.2256 14.0938 17.2119 14.1279 17.2002 14.1553L17.1504 14.4307L16.6787 14.4131L16.7432 13.1533L16.8516 13.0332Z" fill="#49447A"/>
<path d="M18.801 25.9707C18.8557 25.9746 18.9895 25.9805 19.2023 25.9883C19.4133 25.9961 19.6613 26 19.9465 26C20.0617 26 20.2053 25.9961 20.3771 25.9883C20.549 25.9805 20.6633 25.9746 20.7199 25.9707L20.7492 26.3896L20.216 26.4629C20.2121 26.5078 20.2023 26.5928 20.1867 26.7178C20.1711 26.8428 20.1633 26.9297 20.1633 26.9785V28.9033L20.7785 28.6689L21.0012 29.041C20.925 29.1016 20.7951 29.2002 20.6115 29.3369C20.4279 29.4756 20.2766 29.5938 20.1574 29.6914C20.1301 29.7148 20.0803 29.7695 20.008 29.8555C19.9338 29.9414 19.885 30 19.8615 30.0313L19.2434 29.9609C19.2473 29.8418 19.257 29.6084 19.2727 29.2607C19.2863 28.915 19.2932 28.6797 19.2932 28.5547V27.1572C19.2932 27.0283 19.2844 26.8799 19.2668 26.7119C19.2473 26.5459 19.2355 26.4629 19.2316 26.4629L18.7629 26.4248L18.801 25.9707ZM16.5984 29.9727C16.1551 29.9727 15.8143 29.8818 15.576 29.7002C15.3377 29.5205 15.2186 29.2676 15.2186 28.9414C15.2186 28.7285 15.2664 28.5225 15.3621 28.3232C15.4559 28.126 15.6219 27.9004 15.8602 27.6465C16.0965 27.3926 16.4344 27.0801 16.8738 26.709H16.1561C16.0799 26.709 15.9852 26.7168 15.8719 26.7324C15.7566 26.748 15.6775 26.7598 15.6346 26.7676L15.5379 27.0752L15.4939 27.2949L15.0281 27.2598L15.075 26.1025L15.2566 25.9824C15.3133 25.9824 15.4119 25.9854 15.5525 25.9912C15.6912 25.9971 15.8104 26 15.91 26H17.8641L17.949 26.5947C17.4686 27.0264 17.1053 27.373 16.8592 27.6348C16.6131 27.8965 16.4393 28.1201 16.3377 28.3057C16.2361 28.4932 16.1854 28.6787 16.1854 28.8623C16.1854 29.0303 16.2342 29.1592 16.3318 29.249C16.4295 29.3389 16.5604 29.3838 16.7244 29.3838C16.8963 29.3838 17.0701 29.3359 17.2459 29.2402C17.2771 29.1406 17.2937 29.0645 17.2957 29.0117V28.7539L17.7703 28.7246L17.8113 29.7617C17.4187 29.9023 17.0145 29.9727 16.5984 29.9727Z" fill="#49447A"/>
</svg>
