<svg width="423" height="233" viewBox="0 0 423 233" fill="none" xmlns="http://www.w3.org/2000/svg">
<g clip-path="url(#clip0)">
<path fill-rule="evenodd" clip-rule="evenodd" d="M302.635 3.05176e-05H20.4604C9.20186 3.05176e-05 0 9.18771 0 20.4181C0 31.7476 9.20186 40.9742 20.4604 40.9742H32.6039C43.85 40.9742 53.1522 50.1619 53.1522 61.4299C53.1522 72.7858 43.85 81.9735 32.6039 81.9735H24.7772C13.5183 81.9735 4.31632 91.1611 4.31632 102.403C4.31632 113.757 13.5183 122.947 24.7772 122.947H119.773C131.083 122.947 140.41 132.135 140.41 143.439C140.41 154.683 131.083 163.983 119.773 163.983H75.57C64.3114 163.983 55.0211 173.172 55.0211 184.414C55.0211 195.657 64.3114 204.933 75.57 204.933H342.458C353.781 204.933 363.07 195.657 363.07 184.414C363.07 173.172 353.781 163.983 342.458 163.983H335.061C323.752 163.983 314.488 154.683 314.488 143.439C314.488 132.135 323.752 122.947 335.061 122.947H345.968C357.214 122.947 366.416 113.757 366.416 102.403C366.416 91.1611 357.214 81.9735 345.968 81.9735H241.315C214.139 81.9735 214.114 40.9742 241.315 40.9742H302.635C314.008 40.9742 323.209 31.7476 323.209 20.4181C323.209 9.18771 314.008 3.05176e-05 302.635 3.05176e-05ZM403.198 82.2509C414.444 82.2509 423.646 91.4373 423.646 102.707C423.646 113.973 414.444 123.162 403.198 123.162C391.876 123.162 382.673 113.973 382.673 102.707C382.673 91.4373 391.876 82.2509 403.198 82.2509Z" fill="#64618E"/>
<path fill-rule="evenodd" clip-rule="evenodd" d="M202.59 233H239.649V175.844H202.59V233Z" fill="#DF7625"/>
<path fill-rule="evenodd" clip-rule="evenodd" d="M217.117 233H209.848C210.126 226.724 209.696 217.031 205.757 208.071C204.143 204.415 203.171 202.399 202.59 201.29V192.379C205.304 193.224 208.661 196.588 212.435 205.16C216.827 215.153 217.382 225.904 217.117 233ZM227.304 175.844H234.827C236.229 181.39 237.945 188.056 239.649 194.244V217.397C239.043 216.048 238.411 214.574 237.78 212.936C234.827 205.247 230.195 187.413 227.304 175.844ZM206.919 175.844H215.325C220.009 184.213 226.585 197.648 229.298 211.121C231.331 221.241 232.099 228.312 232.352 233H225.108C224.856 228.815 224.111 222.287 222.154 212.544C219.2 197.849 211.197 183.04 206.919 175.844Z" fill="#AE6125"/>
<path fill-rule="evenodd" clip-rule="evenodd" d="M203.322 189.139H239.649V175.844H203.322V189.139Z" fill="#AE6125"/>
<path fill-rule="evenodd" clip-rule="evenodd" d="M232.922 17.9974H262.281C264.717 17.9974 268.39 20.6565 266.724 22.433L257.736 32.0626L266.724 40.659C268.491 42.3476 264.717 45.0946 262.281 45.0946H232.922C230.472 45.0946 228.477 43.1034 228.477 40.659V22.433C228.477 20.0011 230.472 17.9974 232.922 17.9974Z" fill="#FCCC19"/>
<path fill-rule="evenodd" clip-rule="evenodd" d="M233.073 17.9974H247.285V45.0946H233.073V17.9974Z" fill="#E7BC1B"/>
<path fill-rule="evenodd" clip-rule="evenodd" d="M255.919 59.224H161.554V175.844H214.152H255.919H297.699V100.929C297.699 77.991 278.904 59.224 255.919 59.224Z" fill="#43779E"/>
<path fill-rule="evenodd" clip-rule="evenodd" d="M161.554 87.3293V131H184.414C188.427 131 191.734 134.265 191.734 138.273C191.734 142.268 188.427 145.57 184.414 145.57H168.71C165.201 145.57 162.236 148.077 161.554 151.393V154.266C162.236 157.581 165.201 160.114 168.71 160.114H263.505C267.532 160.114 270.826 156.825 270.826 152.831C270.826 148.835 267.532 145.57 263.505 145.57H260.88C256.854 145.57 253.571 142.268 253.571 138.273C253.571 134.265 256.854 131 260.88 131H264.755C268.743 131 272.012 127.736 272.012 123.702C272.012 119.708 268.743 116.443 264.755 116.443H227.582C217.925 116.443 217.913 101.874 227.582 101.874H249.355C253.395 101.874 256.662 98.6086 256.662 94.576C256.662 90.5936 253.395 87.3293 249.355 87.3293H161.554ZM285.077 116.543C289.079 116.543 292.347 119.809 292.347 123.804C292.347 127.813 289.079 131.075 285.077 131.075C281.051 131.075 277.793 127.813 277.793 123.804C277.793 119.809 281.051 116.543 285.077 116.543Z" fill="#4F88AE"/>
<path fill-rule="evenodd" clip-rule="evenodd" d="M161.554 59.224C184.527 59.224 203.322 77.991 203.322 100.929V175.844H119.787V100.929C119.787 77.991 138.581 59.224 161.554 59.224Z" fill="#133343"/>
<path fill-rule="evenodd" clip-rule="evenodd" d="M196.341 77.9157C200.747 84.5183 203.322 92.4467 203.322 100.929V166.316H171.829C166.981 166.316 162.968 162.307 162.968 157.467C162.968 152.615 166.981 148.646 171.829 148.646H190.902C195.774 148.646 199.8 144.638 199.8 139.785C199.8 134.908 195.774 130.95 190.902 130.95H149.929C145.069 130.95 141.106 126.992 141.106 122.09C141.106 117.238 145.069 113.28 149.929 113.28H153.299C158.146 113.28 162.159 109.322 162.159 104.42C162.159 99.5553 158.146 95.598 153.299 95.598H148.06C143.201 95.598 139.237 91.6156 139.237 86.7242C139.237 81.8856 143.201 77.9157 148.06 77.9157H196.341Z" fill="#152731"/>
<path fill-rule="evenodd" clip-rule="evenodd" d="M203.322 165.874H158.045C155.167 165.874 152.82 163.53 152.82 160.656C152.82 157.796 155.167 155.451 158.045 155.451H203.322V165.874Z" fill="#E6CCAB"/>
<path fill-rule="evenodd" clip-rule="evenodd" d="M203.322 165.874H158.045C155.572 165.874 153.489 164.134 152.958 161.829H203.322V165.874Z" fill="#E6AB92"/>
<path fill-rule="evenodd" clip-rule="evenodd" d="M203.322 175.844H145.284C142.406 175.844 140.058 173.499 140.058 170.637C140.058 167.765 142.406 165.421 145.284 165.421H203.322V175.844Z" fill="#E6CCAB"/>
<path fill-rule="evenodd" clip-rule="evenodd" d="M203.322 175.844H145.284C142.557 175.844 140.31 173.752 140.083 171.092H203.322V175.844Z" fill="#E6AB92"/>
<path fill-rule="evenodd" clip-rule="evenodd" d="M224.501 117.54H232.454C234.524 117.54 236.229 115.839 236.229 113.771V21.4764C236.229 19.3961 234.524 17.7087 232.454 17.7087H224.501C222.432 17.7087 220.727 19.3961 220.727 21.4764V113.771C220.727 115.839 222.432 117.54 224.501 117.54Z" fill="#E7BC1B"/>
<path fill-rule="evenodd" clip-rule="evenodd" d="M230.283 117.54H238.222C240.305 117.54 241.997 115.839 241.997 113.771V21.4764C241.997 19.3961 240.305 17.7087 238.222 17.7087H230.283C228.201 17.7087 226.508 19.3961 226.508 21.4764V113.771C226.508 115.839 228.201 117.54 230.283 117.54Z" fill="#FFDF18"/>
<path fill-rule="evenodd" clip-rule="evenodd" d="M198.109 186.28H82.2731C79.3949 186.28 77.0461 183.922 77.0461 181.062C77.0461 178.188 79.3949 175.844 82.2731 175.844H198.109C200.973 175.844 203.322 178.188 203.322 181.062C203.322 183.922 200.973 186.28 198.109 186.28Z" fill="#4F88AE"/>
<path fill-rule="evenodd" clip-rule="evenodd" d="M30.6343 70.4154H102.505C106.911 70.4154 110.496 74.0061 110.496 78.3928V122.304C110.496 126.69 106.911 130.283 102.505 130.283H30.6343C26.2413 130.283 22.644 126.69 22.644 122.304V78.3928C22.644 74.0061 26.2413 70.4154 30.6343 70.4154Z" fill="#E6CCAB"/>
<path fill-rule="evenodd" clip-rule="evenodd" d="M108.249 127.837C106.798 129.337 104.754 130.283 102.506 130.283H30.6344C28.5763 130.283 26.6834 129.489 25.2571 128.191L69.1825 99.264L108.249 127.837Z" fill="#D3BC9E"/>
<path fill-rule="evenodd" clip-rule="evenodd" d="M30.6342 70.4154H102.505C105.713 70.4154 108.489 72.32 109.764 75.0532L68.0219 118.562L23.78 74.3099C25.1809 71.9785 27.731 70.4154 30.6342 70.4154Z" fill="#DEB99F"/>
<path fill-rule="evenodd" clip-rule="evenodd" d="M30.6344 70.4153H102.506C104.905 70.4153 107.064 71.4863 108.527 73.1624L67.7693 108.075L25.0046 72.7468C26.456 71.3105 28.4502 70.4153 30.6344 70.4153Z" fill="#F3E1CB"/>
<path fill-rule="evenodd" clip-rule="evenodd" d="M25.2822 59.2867H60.0948C61.7491 59.2867 63.0998 60.6351 63.0998 62.2861C63.0998 63.9245 61.7491 65.2729 60.0948 65.2729H25.2822C23.6417 65.2729 22.291 63.9245 22.291 62.2861C22.291 60.6351 23.6417 59.2867 25.2822 59.2867Z" fill="#CAC9BD"/>
<path fill-rule="evenodd" clip-rule="evenodd" d="M85.7499 46.6616H120.563C122.202 46.6616 123.554 47.9974 123.554 49.6484C123.554 51.2993 122.202 52.649 120.563 52.649H85.7499C84.0964 52.649 82.7585 51.2993 82.7585 49.6484C82.7585 47.9974 84.0964 46.6616 85.7499 46.6616Z" fill="#CAC9BD"/>
<path fill-rule="evenodd" clip-rule="evenodd" d="M96.8763 112.423H162.539C166.553 112.423 169.847 115.699 169.847 119.708V159.811C169.847 163.82 166.553 167.097 162.539 167.097H96.8763C92.8628 167.097 89.5823 163.82 89.5823 159.811V119.708C89.5823 115.699 92.8628 112.423 96.8763 112.423Z" fill="#D93945"/>
<path fill-rule="evenodd" clip-rule="evenodd" d="M167.79 164.866C166.452 166.239 164.596 167.097 162.539 167.097H96.8765C94.9967 167.097 93.2666 166.379 91.979 165.193L132.106 138.764L167.79 164.866Z" fill="#BB2E3F"/>
<path fill-rule="evenodd" clip-rule="evenodd" d="M96.8765 112.423H162.539C165.468 112.423 168.005 114.163 169.166 116.657L131.046 156.397L90.616 115.964C91.9035 113.848 94.2397 112.423 96.8765 112.423Z" fill="#BB2E3F"/>
<path fill-rule="evenodd" clip-rule="evenodd" d="M96.8764 112.423H162.539C164.722 112.423 166.691 113.392 168.043 114.917L130.807 146.817L91.7388 114.54C93.0653 113.23 94.8822 112.423 96.8764 112.423Z" fill="#FF4E4E"/>
<path fill-rule="evenodd" clip-rule="evenodd" d="M37.7663 146.376H72.566C74.2195 146.376 75.5699 147.712 75.5699 149.364C75.5699 151.015 74.2195 152.362 72.566 152.362H37.7663C36.1126 152.362 34.762 151.015 34.762 149.364C34.762 147.712 36.1126 146.376 37.7663 146.376Z" fill="#CAC9BD"/>
<path fill-rule="evenodd" clip-rule="evenodd" d="M44.8222 135.172H79.6226C81.276 135.172 82.6265 136.521 82.6265 138.159C82.6265 139.809 81.276 141.158 79.6226 141.158H44.8222C43.1678 141.158 41.8171 139.809 41.8171 138.159C41.8171 136.521 43.1678 135.172 44.8222 135.172Z" fill="#CAC9BD"/>
<path fill-rule="evenodd" clip-rule="evenodd" d="M208.711 186.28H147.531C144.665 186.28 142.318 183.922 142.318 181.062C142.318 178.188 144.665 175.844 147.531 175.844H208.711C211.577 175.844 213.924 178.188 213.924 181.062C213.924 183.922 211.577 186.28 208.711 186.28Z" fill="#3D627F"/>
<path fill-rule="evenodd" clip-rule="evenodd" d="M227.379 92.8874H238.601C244.761 92.8874 249.81 97.9294 249.81 104.079V106.398C249.81 112.561 244.761 117.603 238.601 117.603H231.041C229.033 117.603 227.379 115.952 227.379 113.948V92.8874Z" fill="#FFDF18"/>
<path fill-rule="evenodd" clip-rule="evenodd" d="M237.781 110.091C240.268 110.091 242.3 108.075 242.3 105.593C242.3 103.108 240.268 101.079 237.781 101.079C235.295 101.079 233.276 103.108 233.276 105.593C233.276 108.075 235.295 110.091 237.781 110.091Z" fill="#152731"/>
<path fill-rule="evenodd" clip-rule="evenodd" d="M211.64 175.844C214.341 178.075 216.058 181.452 216.058 185.209C216.058 191.925 210.592 197.383 203.864 197.383C197.137 197.383 191.684 191.925 191.684 185.209C191.684 181.452 193.4 178.075 196.088 175.844H211.64Z" fill="#3D627F"/>
<path fill-rule="evenodd" clip-rule="evenodd" d="M204.646 189.531C206.932 189.531 208.799 187.667 208.799 185.372C208.799 183.09 206.932 181.226 204.646 181.226C202.35 181.226 200.481 183.09 200.481 185.372C200.481 187.667 202.35 189.531 204.646 189.531Z" fill="#152731"/>
</g>
<defs>
<clipPath id="clip0">
<rect width="423" height="233" fill="white"/>
</clipPath>
</defs>
</svg>
