<svg width="423" height="233" viewBox="0 0 423 233" fill="none" xmlns="http://www.w3.org/2000/svg">
<g clip-path="url(#clip0)">
<path fill-rule="evenodd" clip-rule="evenodd" d="M302.635 -9.15527e-05H20.4604C9.20186 -9.15527e-05 0 9.18759 0 20.4179C0 31.7475 9.20186 40.9741 20.4604 40.9741H32.6039C43.85 40.9741 53.1522 50.1617 53.1522 61.4297C53.1522 72.7857 43.85 81.9733 32.6039 81.9733H24.7772C13.5183 81.9733 4.31632 91.161 4.31632 102.403C4.31632 113.757 13.5183 122.946 24.7772 122.946H119.773C131.083 122.946 140.41 132.135 140.41 143.439C140.41 154.682 131.083 163.983 119.773 163.983H75.57C64.3114 163.983 55.0211 173.172 55.0211 184.414C55.0211 195.657 64.3114 204.933 75.57 204.933H342.458C353.781 204.933 363.07 195.657 363.07 184.414C363.07 173.172 353.781 163.983 342.458 163.983H335.061C323.752 163.983 314.488 154.682 314.488 143.439C314.488 132.135 323.752 122.946 335.061 122.946H345.968C357.214 122.946 366.416 113.757 366.416 102.403C366.416 91.161 357.214 81.9733 345.968 81.9733H241.315C214.139 81.9733 214.114 40.9741 241.315 40.9741H302.635C314.008 40.9741 323.209 31.7475 323.209 20.4179C323.209 9.18759 314.008 -9.15527e-05 302.635 -9.15527e-05ZM403.198 82.2508C414.444 82.2508 423.646 91.4372 423.646 102.706C423.646 113.973 414.444 123.162 403.198 123.162C391.876 123.162 382.673 113.973 382.673 102.706C382.673 91.4372 391.876 82.2508 403.198 82.2508Z" fill="#64618E"/>
<path fill-rule="evenodd" clip-rule="evenodd" d="M202.59 233H239.649V175.844H202.59V233Z" fill="#DF7625"/>
<path fill-rule="evenodd" clip-rule="evenodd" d="M217.117 233H209.848C210.126 226.724 209.696 217.031 205.758 208.071C204.143 204.415 203.171 202.399 202.59 201.29V192.379C205.304 193.224 208.661 196.588 212.436 205.16C216.828 215.153 217.382 225.904 217.117 233ZM227.304 175.844H234.827C236.229 181.39 237.945 188.056 239.649 194.244V217.397C239.043 216.048 238.412 214.574 237.781 212.936C234.827 205.247 230.195 187.413 227.304 175.844ZM206.919 175.844H215.325C220.009 184.213 226.585 197.648 229.298 211.121C231.331 221.241 232.1 228.312 232.352 233H225.109C224.856 228.815 224.112 222.287 222.154 212.544C219.2 197.849 211.197 183.04 206.919 175.844Z" fill="#AE6125"/>
<path fill-rule="evenodd" clip-rule="evenodd" d="M203.322 189.139H239.649V175.844H203.322V189.139Z" fill="#AE6125"/>
<path fill-rule="evenodd" clip-rule="evenodd" d="M320.606 101.195L320.606 130.554C320.606 132.991 317.946 136.663 316.17 134.997L306.54 126.01L297.944 134.997C296.255 136.764 293.508 132.991 293.508 130.554L293.508 101.195C293.508 98.7447 295.5 96.7505 297.944 96.7505L316.17 96.7505C318.602 96.7505 320.606 98.7447 320.606 101.195Z" fill="#FCCC19"/>
<path fill-rule="evenodd" clip-rule="evenodd" d="M320.606 101.346L320.606 115.558L293.508 115.558L293.508 101.346L320.606 101.346Z" fill="#E7BC1B"/>
<path fill-rule="evenodd" clip-rule="evenodd" d="M255.919 59.2238H161.554V175.844H214.152H255.919H297.699V100.929C297.699 77.9909 278.904 59.2238 255.919 59.2238Z" fill="#43779E"/>
<path fill-rule="evenodd" clip-rule="evenodd" d="M161.554 87.3294V131H184.414C188.427 131 191.734 134.265 191.734 138.273C191.734 142.268 188.427 145.57 184.414 145.57H168.71C165.201 145.57 162.236 148.078 161.554 151.393V154.266C162.236 157.581 165.201 160.114 168.71 160.114H263.505C267.532 160.114 270.826 156.825 270.826 152.831C270.826 148.835 267.532 145.57 263.505 145.57H260.88C256.854 145.57 253.571 142.268 253.571 138.273C253.571 134.265 256.854 131 260.88 131H264.755C268.743 131 272.012 127.736 272.012 123.702C272.012 119.708 268.743 116.443 264.755 116.443H227.582C217.925 116.443 217.913 101.874 227.582 101.874H249.355C253.395 101.874 256.662 98.6087 256.662 94.5761C256.662 90.5937 253.395 87.3294 249.355 87.3294H161.554ZM285.077 116.543C289.079 116.543 292.347 119.809 292.347 123.804C292.347 127.813 289.079 131.075 285.077 131.075C281.051 131.075 277.793 127.813 277.793 123.804C277.793 119.809 281.051 116.543 285.077 116.543Z" fill="#4F88AE"/>
<path fill-rule="evenodd" clip-rule="evenodd" d="M161.554 59.2238C184.527 59.2238 203.322 77.9909 203.322 100.929V175.844H119.787V100.929C119.787 77.9909 138.581 59.2238 161.554 59.2238Z" fill="#133343"/>
<path fill-rule="evenodd" clip-rule="evenodd" d="M196.341 77.9158C200.747 84.5184 203.322 92.4468 203.322 100.929V166.316H171.829C166.981 166.316 162.968 162.307 162.968 157.467C162.968 152.615 166.981 148.646 171.829 148.646H190.902C195.774 148.646 199.8 144.638 199.8 139.785C199.8 134.908 195.774 130.95 190.902 130.95H149.929C145.069 130.95 141.106 126.992 141.106 122.09C141.106 117.238 145.069 113.28 149.929 113.28H153.299C158.146 113.28 162.159 109.322 162.159 104.42C162.159 99.5554 158.146 95.5981 153.299 95.5981H148.06C143.201 95.5981 139.237 91.6157 139.237 86.7243C139.237 81.8856 143.201 77.9158 148.06 77.9158H196.341Z" fill="#152731"/>
<path fill-rule="evenodd" clip-rule="evenodd" d="M203.322 165.874H158.045C155.167 165.874 152.82 163.53 152.82 160.656C152.82 157.796 155.167 155.451 158.045 155.451H203.322V165.874Z" fill="#E6CCAB"/>
<path fill-rule="evenodd" clip-rule="evenodd" d="M203.322 165.874H158.045C155.572 165.874 153.489 164.134 152.958 161.829H203.322V165.874Z" fill="#E6AB92"/>
<path fill-rule="evenodd" clip-rule="evenodd" d="M203.322 175.844H145.284C142.406 175.844 140.058 173.498 140.058 170.637C140.058 167.764 142.406 165.421 145.284 165.421H203.322V175.844Z" fill="#E6CCAB"/>
<path fill-rule="evenodd" clip-rule="evenodd" d="M203.322 175.844H145.284C142.557 175.844 140.31 173.752 140.083 171.091H203.322V175.844Z" fill="#E6AB92"/>
<path fill-rule="evenodd" clip-rule="evenodd" d="M221.063 92.7747L221.063 100.728C221.063 102.797 222.764 104.502 224.832 104.502L317.126 104.502C319.207 104.502 320.894 102.797 320.894 100.728L320.894 92.7747C320.894 90.705 319.207 89 317.126 89L224.832 89C222.764 89 221.063 90.705 221.063 92.7747Z" fill="#E7BC1B"/>
<path fill-rule="evenodd" clip-rule="evenodd" d="M221.063 98.5561L221.063 106.495C221.063 108.579 222.764 110.27 224.832 110.27L317.126 110.27C319.207 110.27 320.894 108.579 320.894 106.495L320.894 98.5561C320.894 96.4739 319.207 94.7815 317.126 94.7815L224.832 94.7815C222.764 94.7815 221.063 96.4739 221.063 98.5561Z" fill="#FFDF18"/>
<path fill-rule="evenodd" clip-rule="evenodd" d="M198.109 186.28H82.2731C79.3949 186.28 77.0461 183.922 77.0461 181.061C77.0461 178.188 79.3949 175.844 82.2731 175.844H198.109C200.973 175.844 203.322 178.188 203.322 181.061C203.322 183.922 200.973 186.28 198.109 186.28Z" fill="#4F88AE"/>
<path fill-rule="evenodd" clip-rule="evenodd" d="M208.711 186.28H147.531C144.665 186.28 142.318 183.922 142.318 181.061C142.318 178.188 144.665 175.844 147.531 175.844H208.711C211.577 175.844 213.924 178.188 213.924 181.061C213.924 183.922 211.577 186.28 208.711 186.28Z" fill="#3D627F"/>
<path fill-rule="evenodd" clip-rule="evenodd" d="M245.715 95.6526L245.715 106.875C245.715 113.035 240.673 118.083 234.524 118.083L232.205 118.083C226.042 118.083 221 113.035 221 106.875L221 99.3141C221 97.3061 222.651 95.6526 224.655 95.6526L245.715 95.6526Z" fill="#FFDF18"/>
<path fill-rule="evenodd" clip-rule="evenodd" d="M228.511 106.054C228.511 108.541 230.528 110.573 233.01 110.573C235.495 110.573 237.524 108.541 237.524 106.054C237.524 103.568 235.495 101.549 233.01 101.549C230.528 101.549 228.511 103.568 228.511 106.054Z" fill="#152731"/>
<path fill-rule="evenodd" clip-rule="evenodd" d="M211.64 175.844C214.341 178.075 216.058 181.452 216.058 185.209C216.058 191.926 210.592 197.383 203.864 197.383C197.137 197.383 191.684 191.926 191.684 185.209C191.684 181.452 193.4 178.075 196.088 175.844H211.64Z" fill="#3D627F"/>
<path fill-rule="evenodd" clip-rule="evenodd" d="M204.646 189.531C206.932 189.531 208.799 187.667 208.799 185.372C208.799 183.09 206.932 181.226 204.646 181.226C202.35 181.226 200.481 183.09 200.481 185.372C200.481 187.667 202.35 189.531 204.646 189.531Z" fill="#152731"/>
<path d="M138.981 146.531C138.981 149.554 136.512 152 133.471 152L53.504 151.973C50.4638 151.973 47.9986 149.521 48 146.495L48.021 96.4736C48.0187 93.4472 50.4858 90.9993 53.5275 91L133.495 91.0284C136.538 91.0314 139.005 93.4836 139 96.5081L138.981 146.531Z" fill="#F9A932"/>
<path d="M138 91.6119C138 95.659 136.976 100.999 133.933 101L53.8816 100.973C50.8386 100.974 49.9986 95.6317 50 91.5813L90.334 56.5391C90.334 56.5391 92.9185 54.0013 94.4896 54C96.2458 53.9987 98.7909 56.5434 98.7909 56.5434L138 91.6119Z" fill="#F9A932"/>
<path d="M131 96L131.004 86L137 91.7672L136.861 91.8678C136.86 91.8659 136.86 91.864 136.859 91.8617L131 96Z" fill="#E6AB92"/>
<path d="M56.7579 96L53.8675 94.1841L50.3114 91.7593L56.7616 86.0554L56.7579 96ZM50 92.0347L50.0014 92.0334C50.0009 92.034 50.0004 92.0344 50 92.0347ZM107 64.3001L81.3746 64.2896L90.1045 56.5697C90.1045 56.5697 92.6743 54.0014 94.2365 54C94.2368 54 94.2375 54 94.2382 54C95.984 54 98.5133 56.5741 98.5133 56.5741L107 64.3001Z" fill="#E6AB92"/>
<path d="M127.918 75.0067C125.939 73.0375 123.96 71.0683 121.981 69.0988L116.88 64.022L61.1297 64C58.3134 63.999 56.0265 66.2708 56.0252 69.0748L56 137.893C55.9969 140.696 58.2815 142.974 61.1005 142.973L125.871 143C128.689 142.996 130.974 140.725 130.977 137.921L131 78.0741C129.973 77.0517 128.945 76.0292 127.918 75.0067Z" fill="white"/>
<path d="M137 145.548C136.998 148.558 134.642 151.002 131.734 151L55.2632 150.969C52.3575 150.973 49.995 148.524 50 145.515L90.0798 117.903C90.0798 117.903 92.482 115.996 93.9836 116C95.6595 115.999 97.797 117.674 97.797 117.674L137 145.548Z" fill="#DDEBEC"/>
<path d="M138.981 146.525C138.981 149.552 136.512 152 133.471 152L53.504 151.973C50.4638 151.973 47.9986 149.518 48 146.489L48.021 96.4173C48.0187 93.3878 49.2712 92.5223 49.9645 92.0569L89.9116 116.814C89.9116 116.814 92.9861 118.771 94.5122 118.771C96.7333 118.771 99.2583 116.953 99.2583 116.953L137.096 92C137.599 93.1877 139.005 93.4242 139 96.4517L138.981 146.525Z" fill="#DDEBEC"/>
<path d="M138.981 146.539C138.981 149.558 136.512 152 133.471 152L53.504 151.973C50.4638 151.973 47.9986 149.525 48 146.503L48.021 96.5539C48.0187 93.5319 49.1133 92.7419 49.9397 92L89.9133 118.823C89.9133 118.823 92.2995 120.469 93.8293 120.469C95.3558 120.472 97.9859 118.587 97.9859 118.587L137.255 92.0477C138.037 92.7479 139.005 93.5683 139 96.5883L138.981 146.539Z" fill="#E6CCAB"/>
<path d="M137 151C137.962 150.218 138.65 149.097 138.895 147.813C138.694 149.319 138.165 150.485 137 151ZM138.993 146.513L138.993 146L139 146.005C139 146.176 138.998 146.346 138.993 146.513Z" fill="#2E7634"/>
<path d="M135.29 151C135.29 151 135.29 151 135.289 151L55.2994 150.971C52.2549 150.97 47.9962 148.929 48 145.857L88.5804 117.238C88.5804 117.238 92.7578 120.272 94.2891 120.272C94.2897 120.272 94.2904 120.272 94.2911 120.272C95.8187 120.272 99.3466 117 99.3466 117L139 145.551L139 146.079C138.987 146.547 138.955 146.996 138.897 147.418C138.64 148.741 137.917 149.896 136.909 150.701C136.463 150.895 135.929 151 135.29 151Z" fill="#C6A881"/>
<path d="M139 146.553C139 149.564 136.531 152 133.489 152L53.5051 151.973C50.4637 151.973 47.9992 149.531 48 146.517L89.9221 118.908C89.9221 118.908 92.4365 117.002 94.006 117C95.7607 117 97.9975 118.672 97.9975 118.672L139 146.553Z" fill="#E6CCAB"/>
<path d="M122.767 70.9134C124.747 73.0052 126.727 75.0973 128.707 77.1895L131 78.5489L123.082 79.9697C120.143 80.2977 118.001 77.9215 118 74.9563L119.002 68L122.767 70.9134Z" fill="#AFCDCC"/>
<path d="M122.772 69.7707C124.751 71.7488 126.73 73.7274 128.709 75.7059L131 77.9966L122.082 78C119.277 78 117.005 75.728 117.004 72.9239L117 64L122.772 69.7707Z" fill="#DDEBEC"/>
<path d="M78.0006 94.6401C78.0787 103.752 85.5287 111.076 94.6417 110.999C103.754 110.921 111.079 103.469 110.999 94.3576C110.922 85.2467 103.472 77.9242 94.3589 78.0006C85.2461 78.0787 77.9232 85.5275 78.0006 94.6401Z" fill="#61C8A7"/>
<path d="M94.4396 101.94C94.2643 101.973 94.0847 101.99 93.9084 101.99C93.2177 102.047 92.5604 101.855 92.1037 101.456L85.543 95.7526C85.2069 95.4603 85.0192 95.0531 85.0012 94.5747C84.9778 93.9081 85.293 93.1619 85.8238 92.6267C86.153 92.2938 86.5162 92.0899 86.8978 92.0163C87.4703 91.9071 88.0612 92.1009 88.604 92.5733L93.622 96.8677L99.0863 89.1766C99.102 89.1474 102.529 84.3067 104.054 84.0174C104.213 83.9872 104.361 83.9959 104.495 84.0466C104.71 84.1256 104.872 84.2986 104.95 84.5321C105.386 85.8451 102.837 90.0801 102.811 90.121L96.1291 100.85C95.7716 101.407 95.159 101.805 94.4396 101.94Z" fill="white"/>
</g>
<defs>
<clipPath id="clip0">
<rect width="423" height="233" fill="white"/>
</clipPath>
</defs>
</svg>
