<svg width="200" height="200" viewBox="0 0 200 200" fill="none" xmlns="http://www.w3.org/2000/svg">
<rect width="200" height="200" fill="#262440"/>
<path d="M59.6187 86.6609C62.0406 97.7375 66.5062 108.117 72.8515 117.564L73.7906 116.625L70.2078 113.042C69.8593 112.694 69.6953 112.203 69.7656 111.716L71.2671 101.2C70.1843 98.2922 69.2953 95.2906 68.6343 92.2656L66.9296 84.4766C66.8296 84.0141 66.9421 83.5313 67.239 83.1625C67.5343 82.7938 67.9828 82.5797 68.4562 82.5797C76.6828 82.5797 84.8109 79.8281 91.3453 74.8313L100.081 68.4859C100.65 68.0703 101.428 68.0891 101.981 68.5344L105.392 71.2891L110.436 64.8703L101 57.6547L90.2812 65.8516C80.9187 73.0125 69.389 77.1219 57.6218 77.5297L59.6187 86.6609Z" fill="#F7F7F5" fill-opacity="0.5"/>
<path d="M144.38 77.5281C143.839 77.5094 143.289 77.4625 142.742 77.4281L140.02 88.8625C139.939 89.2062 139.744 89.5125 139.466 89.7297L131.217 96.2109C125.688 114.777 117.139 126.092 101.795 135.159C101.55 135.303 101.275 135.375 101 135.375C100.725 135.375 100.45 135.303 100.205 135.158C98.3579 134.066 96.5438 132.861 94.7907 131.591L90.2845 132.234C90.2095 132.245 90.136 132.25 90.0626 132.25C89.6517 132.25 89.2532 132.087 88.9579 131.792L85.3751 128.209L83.2329 130.352C88.5813 135.828 94.5423 140.584 101 144.492C122.058 131.752 137.117 110.725 142.381 86.6609L144.38 77.5281Z" fill="#F7F7F5" fill-opacity="0.5"/>
<path d="M78.9845 104.9L103.463 73.7469L100.95 71.7172L93.2142 77.3359C86.6798 82.3344 78.6313 85.2609 70.3892 85.6578L71.6892 91.5969C72.3204 94.4844 73.1751 97.3469 74.2079 100.123L78.9845 104.9Z" fill="#F7F7F5" fill-opacity="0.5"/>
<path d="M81.2095 107.125L86.9376 112.853L117.541 82.25H107.25V79.125H120.666L123.791 76H110.375V72.875H126.916L141.305 58.4859L114.392 64.8937L81.2095 107.125Z" fill="#F7F7F5" fill-opacity="0.5"/>
<path d="M101.222 130.672L99.3595 130.937C99.9048 131.294 100.45 131.653 101.002 131.991C113.878 124.183 121.614 114.55 126.811 99.6719L97.1001 123.016L102.105 128.02C102.524 128.439 102.669 129.058 102.483 129.619C102.297 130.18 101.808 130.589 101.222 130.672V130.672Z" fill="#F7F7F5" fill-opacity="0.5"/>
<path d="M143.514 60.6953L89.147 115.062L94.8751 120.791L137.106 87.6078L143.514 60.6953Z" fill="#F7F7F5" fill-opacity="0.5"/>
<path d="M90.6155 129.03L97.6858 128.02L73.9796 104.314L72.9702 111.384L77.1046 115.52L86.4796 124.895L90.6155 129.03Z" fill="#F7F7F5" fill-opacity="0.5"/>
<path d="M71.9485 122.871L75.9889 118.83L83.1539 125.995L79.1135 130.036L71.9485 122.871Z" fill="#F7F7F5" fill-opacity="0.5"/>
<path d="M63.9577 142.998C64.5483 143.588 65.5764 143.588 66.167 142.998L76.9155 132.25L69.7499 125.084L59.0014 135.833C58.7077 136.128 58.5452 136.52 58.5452 136.938C58.5452 137.355 58.7077 137.747 59.0014 138.042L63.9577 142.998Z" fill="#F7F7F5" fill-opacity="0.5"/>
<path d="M144.75 111.938H141.625V115.062H138.5V118.188H141.625V121.312H144.75V118.188H147.875V115.062H144.75V111.938Z" fill="#F7F7F5" fill-opacity="0.5"/>
<path d="M135.375 133.812V136.938H132.25V140.062H135.375V143.188H138.5V140.062H141.625V136.938H138.5V133.812H135.375Z" fill="#F7F7F5" fill-opacity="0.5"/>
<path d="M60.375 60.375H63.5V63.5H66.625V60.375H69.75V57.25H66.625V54.125H63.5V57.25H60.375V60.375Z" fill="#F7F7F5" fill-opacity="0.5"/>
<path d="M119.75 136.938H122.875V140.062H119.75V136.938Z" fill="#F7F7F5" fill-opacity="0.5"/>
<path d="M76 55.6875H79.125V58.8125H76V55.6875Z" fill="#F7F7F5" fill-opacity="0.5"/>
<path d="M54.125 68.1875H57.25V71.3125H54.125V68.1875Z" fill="#F7F7F5" fill-opacity="0.5"/>
<path d="M144.75 144.75H147.875V147.875H144.75V144.75Z" fill="#F7F7F5" fill-opacity="0.5"/>
</svg>
