<svg width="200" height="200" viewBox="0 0 200 200" fill="none" xmlns="http://www.w3.org/2000/svg">
<rect width="200" height="200" fill="#262440"/>
<path d="M98.1645 83.5975C91.7046 83.5975 86.6436 79.7825 86.6436 74.9128C86.6436 70.0422 91.7046 66.2281 98.1645 66.2281C104.625 66.2281 109.686 70.0422 109.686 74.9128C109.686 79.7825 104.625 83.5975 98.1645 83.5975ZM98.1645 70.9156C94.1371 70.9156 91.3311 73.0213 91.3311 74.9128C91.3311 76.8024 94.1371 78.91 98.1645 78.91C102.192 78.91 104.999 76.8033 104.999 74.9128C104.999 73.0222 102.192 70.9156 98.1645 70.9156Z" fill="#E5E5E5" fill-opacity="0.5"/>
<path d="M132.038 105.791C128.384 105.791 125.523 102.122 125.523 97.4384C125.523 92.7564 128.384 89.0878 132.038 89.0878C135.691 89.0878 138.553 92.7564 138.553 97.4384C138.553 102.122 135.691 105.791 132.038 105.791ZM132.038 93.7753C131.31 93.7753 130.21 95.2365 130.21 97.4393C130.21 99.6411 131.31 101.103 132.038 101.103C132.766 101.103 133.866 99.642 133.866 97.4393C133.866 95.2365 132.766 93.7753 132.038 93.7753Z" fill="#E5E5E5" fill-opacity="0.5"/>
<path d="M122.027 121.975C118.374 121.975 115.512 118.308 115.512 113.625C115.512 108.943 118.374 105.274 122.027 105.274C125.68 105.274 128.542 108.942 128.542 113.625C128.542 118.308 125.68 121.975 122.027 121.975V121.975ZM122.027 109.962C121.299 109.962 120.199 111.423 120.199 113.625C120.199 115.828 121.299 117.288 122.027 117.288C122.754 117.288 123.855 115.828 123.855 113.625C123.855 111.423 122.754 109.962 122.027 109.962Z" fill="#E5E5E5" fill-opacity="0.5"/>
<path d="M111.848 138.162C108.194 138.162 105.332 134.493 105.332 129.81C105.332 125.128 108.194 121.46 111.848 121.46C115.501 121.46 118.363 125.128 118.363 129.81C118.363 134.493 115.501 138.162 111.848 138.162V138.162ZM111.848 126.147C111.12 126.147 110.02 127.608 110.02 129.81C110.02 132.013 111.119 133.474 111.848 133.474C112.575 133.474 113.675 132.013 113.675 129.81C113.675 127.608 112.575 126.147 111.848 126.147Z" fill="#E5E5E5" fill-opacity="0.5"/>
<path d="M68.1288 111.63C64.3824 111.63 61.4473 107.815 61.4473 102.945C61.4473 98.0756 64.3824 94.2606 68.1288 94.2606C71.876 94.2606 74.8112 98.0756 74.8112 102.945C74.8112 107.815 71.876 111.63 68.1288 111.63ZM68.1288 98.9481C67.335 98.9481 66.1348 100.543 66.1348 102.946C66.1348 105.349 67.335 106.942 68.1288 106.942C68.9235 106.942 70.1246 105.349 70.1246 102.946C70.1237 100.543 68.9235 98.9481 68.1288 98.9481Z" fill="#E5E5E5" fill-opacity="0.5"/>
<path d="M81.1443 132.989C77.3971 132.989 74.4619 129.174 74.4619 124.304C74.4619 119.435 77.3971 115.62 81.1443 115.62C84.8916 115.62 87.8268 119.435 87.8268 124.304C87.8268 129.174 84.8916 132.989 81.1443 132.989ZM81.1443 120.307C80.3506 120.307 79.1494 121.902 79.1494 124.304C79.1494 126.708 80.3506 128.302 81.1443 128.302C81.939 128.302 83.1393 126.708 83.1393 124.304C83.1393 121.901 81.939 120.307 81.1443 120.307Z" fill="#E5E5E5" fill-opacity="0.5"/>
<path d="M153.763 74.683C152.706 74.683 151.747 73.9624 151.487 72.8895C151.184 71.6315 151.957 70.3644 153.215 70.0605L157.105 69.1202C158.364 68.8144 159.63 69.589 159.934 70.8478C160.238 72.1058 159.464 73.3719 158.207 73.6759L154.316 74.6171C154.132 74.661 153.946 74.683 153.763 74.683Z" fill="#E5E5E5" fill-opacity="0.5"/>
<path d="M143.772 60.9757C143.356 60.9757 142.935 60.8649 142.553 60.6324C141.449 59.9576 141.1 58.5157 141.775 57.4106L143.86 53.9948C144.535 52.8907 145.977 52.5419 147.082 53.2166C148.187 53.8904 148.535 55.3333 147.86 56.4384L145.774 59.8533C145.333 60.5765 144.562 60.9757 143.772 60.9757V60.9757Z" fill="#E5E5E5" fill-opacity="0.5"/>
<path d="M154.552 93.5245C154.136 93.5245 153.715 93.4137 153.333 93.1812L149.917 91.0956C148.812 90.4209 148.463 88.978 149.138 87.8739C149.813 86.7688 151.255 86.42 152.36 87.0948L155.775 89.1803C156.88 89.8551 157.229 91.297 156.555 92.4021C156.113 93.1253 155.341 93.5245 154.552 93.5245V93.5245Z" fill="#E5E5E5" fill-opacity="0.5"/>
<path d="M46.2362 74.683C46.054 74.683 45.8682 74.661 45.6833 74.617L41.7932 73.6759C40.5353 73.3719 39.7616 72.1058 40.0656 70.8478C40.3695 69.589 41.6366 68.8153 42.8946 69.1202L46.7846 70.0605C48.0426 70.3644 48.8162 71.6315 48.5122 72.8894C48.2531 73.9624 47.2937 74.683 46.2362 74.683Z" fill="#E5E5E5" fill-opacity="0.5"/>
<path d="M56.2273 60.9757C55.4372 60.9757 54.6663 60.5765 54.225 59.8533L52.1394 56.4384C51.4638 55.3333 51.8126 53.8904 52.9176 53.2166C54.0227 52.5419 55.4646 52.8907 56.1394 53.9948L58.2249 57.4106C58.8997 58.5157 58.5509 59.9576 57.4467 60.6324C57.0659 60.8658 56.6438 60.9757 56.2273 60.9757Z" fill="#E5E5E5" fill-opacity="0.5"/>
<path d="M45.4486 93.5245C44.6585 93.5245 43.8876 93.1253 43.4454 92.4021C42.7707 91.297 43.1195 89.8551 44.2245 89.1803L47.6404 87.0948C48.7454 86.42 50.1874 86.7688 50.8621 87.8739C51.5368 88.978 51.188 90.4209 50.083 91.0956L46.6672 93.1812C46.2854 93.4137 45.8642 93.5245 45.4486 93.5245Z" fill="#E5E5E5" fill-opacity="0.5"/>
<path d="M92.5166 106.939C92.3646 106.939 92.2099 106.925 92.0598 106.895C91.9096 106.865 91.7622 106.82 91.6212 106.761C91.4784 106.703 91.3429 106.63 91.2156 106.546C91.0865 106.459 90.9675 106.36 90.8595 106.253C90.7515 106.145 90.6535 106.025 90.5693 105.896C90.485 105.77 90.4118 105.634 90.3532 105.493C90.2946 105.35 90.2507 105.203 90.2195 105.055C90.1893 104.903 90.1729 104.748 90.1729 104.596C90.1729 104.443 90.1893 104.288 90.2195 104.138C90.2507 103.988 90.2946 103.841 90.3532 103.701C90.4118 103.558 90.485 103.421 90.5693 103.295C90.6535 103.166 90.7515 103.047 90.8595 102.939C90.9675 102.831 91.0865 102.732 91.2156 102.648C91.3429 102.563 91.4784 102.491 91.6212 102.433C91.7622 102.374 91.9096 102.329 92.0598 102.299C92.3591 102.238 92.6713 102.238 92.9735 102.299C93.1236 102.329 93.271 102.374 93.4138 102.433C93.5548 102.491 93.6912 102.563 93.8176 102.648C93.9467 102.732 94.0657 102.831 94.1737 102.939C94.2817 103.046 94.3797 103.166 94.4639 103.295C94.5491 103.421 94.6214 103.558 94.68 103.701C94.7386 103.841 94.7835 103.988 94.8137 104.138C94.8439 104.288 94.8604 104.443 94.8604 104.596C94.8604 104.748 94.8439 104.903 94.8137 105.055C94.7835 105.203 94.7386 105.35 94.68 105.493C94.6214 105.634 94.5491 105.77 94.4639 105.896C94.3797 106.025 94.2817 106.145 94.1737 106.253C93.7379 106.688 93.1328 106.939 92.5166 106.939Z" fill="#E5E5E5" fill-opacity="0.5"/>
<path d="M145.079 71.8833L101.135 47.5587C100.428 47.1677 99.5714 47.1677 98.8646 47.5587L54.9211 71.8833C54.8396 71.9264 53.6787 72.6991 53.6787 73.9524V126.31C53.6787 127.162 54.142 127.947 54.8872 128.359L98.8444 152.691C99.9998 153.343 101.127 152.707 101.155 152.691L145.112 128.359C145.858 127.947 146.321 127.162 146.321 126.31V73.9524C146.321 73.9341 146.321 72.548 145.079 71.8833V71.8833ZM99.9998 52.2883L139.138 73.9524L99.9998 95.6156L60.8619 73.9524L99.9998 52.2883ZM58.3662 77.9286L97.6561 99.676V146.676L94.86 145.128V113.501C94.86 112.207 93.8109 111.158 92.5163 111.158C91.2217 111.158 90.1725 112.207 90.1725 113.501V142.534L58.3662 124.928V77.9286ZM102.344 146.676V99.676L141.633 77.9286V124.928L102.344 146.676Z" fill="#E5E5E5" fill-opacity="0.5"/>
</svg>
