<svg width="200" height="200" viewBox="0 0 200 200" fill="none" xmlns="http://www.w3.org/2000/svg">
<rect width="200" height="200" fill="#262440"/>
<g clip-path="url(#clip0)">
<path d="M60 100C65.5228 100 70 95.5228 70 90C70 84.4772 65.5228 80 60 80C54.4772 80 50 84.4772 50 90C50 95.5228 54.4772 100 60 100Z" fill="#E5E5E5" fill-opacity="0.5"/>
<path d="M73.35 107C68.3 110.8 65 116.9 65 123.75V125H43.75C41.7 125 40 123.3 40 121.25V118.75C40 111.15 46.15 105 53.75 105H66.25C68.85 105 71.3 105.75 73.35 107Z" fill="#E5E5E5" fill-opacity="0.5"/>
<path d="M140 100C145.523 100 150 95.5228 150 90C150 84.4772 145.523 80 140 80C134.477 80 130 84.4772 130 90C130 95.5228 134.477 100 140 100Z" fill="#E5E5E5" fill-opacity="0.5"/>
<path d="M160 118.75V121.25C160 123.3 158.3 125 156.25 125H135V123.75C135 116.9 131.7 110.8 126.65 107C128.7 105.75 131.15 105 133.75 105H146.25C153.85 105 160 111.15 160 118.75Z" fill="#E5E5E5" fill-opacity="0.5"/>
<path d="M100 102.5C108.284 102.5 115 95.7843 115 87.5C115 79.2157 108.284 72.5 100 72.5C91.7157 72.5 85 79.2157 85 87.5C85 95.7843 91.7157 102.5 100 102.5Z" fill="#E5E5E5" fill-opacity="0.5"/>
<path d="M113.75 110H86.25C78.665 110 72.5 116.165 72.5 123.75V131.25C72.5 133.32 74.18 135 76.25 135H123.75C125.82 135 127.5 133.32 127.5 131.25V123.75C127.5 116.165 121.335 110 113.75 110Z" fill="#E5E5E5" fill-opacity="0.5"/>
</g>
<defs>
<clipPath id="clip0">
<rect width="120" height="120" fill="white" transform="translate(40 40)"/>
</clipPath>
</defs>
</svg>
