<svg width="500" height="500" viewBox="0 0 500 500" fill="none" xmlns="http://www.w3.org/2000/svg">
<g filter="url(#filter0_d)">
<path d="M106.218 51.5244L103.628 62.7584L120.761 87.6828L125.447 71.0015C125.74 69.9569 125.554 68.8356 124.94 67.9412L112.794 50.2745C110.992 47.6535 106.932 48.4251 106.218 51.5244Z" fill="#5C7EA5"/>
<path d="M121.767 86.9892L104.515 85.3854C103.431 85.2987 102.449 84.7207 101.842 83.8249L99.6745 80.6606L100.599 76.008H96.4668L89.6903 66.1539C87.8841 63.5386 90.0662 60.0275 93.2155 60.461L104.63 62.0648L121.767 86.9892Z" fill="#BEDCFF"/>
<path d="M166.397 158.367L171.419 154.915L104.096 56.9846C103.142 55.5989 101.245 55.2478 99.858 56.2C98.4723 57.1536 98.1212 59.0508 99.0734 60.4379L166.397 158.367Z" fill="#3F5E81"/>
<path d="M51.2454 101.36L55.8753 111.919L84.4999 121.684L78.2993 105.504C77.9111 104.491 77.0927 103.702 76.0654 103.353L55.7747 96.4316C52.7637 95.4043 49.9682 98.4457 51.2454 101.36Z" fill="#5C7EA5"/>
<path d="M84.8928 120.528L70.0951 129.541C69.174 130.118 68.0406 130.241 67.0191 129.885L46.7205 122.964C43.7105 121.944 43.3646 117.825 46.1499 116.292L56.2647 110.763L84.8928 120.528Z" fill="#BEDCFF"/>
<path d="M163.31 151.142L165.278 145.374L52.8032 107.008C51.2105 106.465 49.4788 107.316 48.9358 108.908C48.3924 110.5 49.2429 112.233 50.8357 112.776L163.31 151.142Z" fill="#3F5E81"/>
<path d="M164.174 229.167C121.949 229.167 87.5952 194.813 87.5952 152.587C87.5952 110.362 121.949 76.008 164.174 76.008C206.4 76.008 240.754 110.362 240.754 152.587C240.754 194.813 206.4 229.167 164.174 229.167Z" fill="#3F5E81"/>
<path d="M87.5952 152.587C87.5952 110.362 121.949 76.008 164.174 76.008V154.032L87.5952 157.403V152.587Z" fill="#BEDCFF"/>
<path d="M234.974 152.587C234.974 191.689 203.276 223.387 164.174 223.387C125.073 223.387 93.3748 191.689 93.3748 152.587C93.3748 113.486 125.073 81.7876 164.174 81.7876C203.276 81.7876 234.974 113.486 234.974 152.587Z" fill="#5C7EA5"/>
<path d="M107.101 133.804C105.106 133.804 103.489 135.421 103.489 137.416V146.808H110.713V137.416C110.713 135.421 109.097 133.804 107.101 133.804Z" fill="#3F5E81"/>
<path d="M125.162 136.693H117.938V115.743C117.938 113.747 119.555 112.13 121.55 112.13C123.546 112.13 125.162 113.747 125.162 115.743V136.693Z" fill="#3F5E81"/>
<path d="M167.064 136.693H159.84V115.743C159.84 113.747 161.457 112.13 163.452 112.13C165.447 112.13 167.064 113.747 167.064 115.743V136.693Z" fill="#3F5E81"/>
<path d="M146.836 136.693H139.611V98.4038C139.611 96.4084 141.228 94.7916 143.223 94.7916C145.219 94.7916 146.836 96.4084 146.836 98.4038V136.693Z" fill="#3F5E81"/>
<path d="M163.452 93.3468C161.457 93.3468 159.84 94.9636 159.84 96.959V102.739C159.84 104.734 161.457 106.351 163.452 106.351C165.447 106.351 167.064 104.734 167.064 102.739V96.959C167.064 94.9636 165.447 93.3468 163.452 93.3468Z" fill="#3F5E81"/>
<path d="M145.391 359.207C139.007 359.207 133.832 354.031 133.832 347.648V240.726H156.95V347.648C156.95 354.031 151.774 359.207 145.391 359.207Z" fill="#3F5E81"/>
<path d="M330.337 357.762C323.953 357.762 318.778 352.586 318.778 346.203V239.281H341.896V346.203C341.896 352.586 336.721 357.762 330.337 357.762Z" fill="#3F5E81"/>
<path d="M254.379 67.3387H221.349L152.904 135.798L197.462 180.355C208.177 191.071 222.71 197.09 237.864 197.09C253.018 197.09 267.551 191.071 278.266 180.355L322.824 135.798L254.379 67.3387Z" fill="white"/>
<path d="M73.1463 159.855V180.04H52.9619L44.8169 151.71L73.1463 159.855Z" fill="white"/>
<path d="M405.471 159.855V180.04H425.656L433.801 151.71L405.471 159.855Z" fill="white"/>
<path d="M73.2377 224.578C59.413 210.753 59.413 188.34 73.2377 174.515L118.192 129.56C132.017 115.735 154.43 115.735 168.255 129.56C182.08 143.385 182.08 165.799 168.255 179.623L123.3 224.578C109.477 238.402 87.0619 238.402 73.2377 224.578Z" fill="#BEDCFF"/>
<path d="M98.2686 229.167C90.3562 229.167 82.9185 226.085 77.3234 220.491C65.775 208.942 65.775 190.15 77.3246 178.601L122.278 133.648C127.873 128.053 135.311 124.971 143.223 124.971C151.136 124.971 158.574 128.053 164.169 133.648C175.718 145.195 175.718 163.988 164.169 175.537L119.214 220.491C113.619 226.085 106.181 229.167 98.2686 229.167Z" fill="#3F5E81"/>
<path d="M97.7094 256.62C69.0272 256.62 45.6933 233.286 45.6933 204.603C45.6933 175.921 69.0272 152.587 97.7094 152.587C126.392 152.587 149.725 175.921 149.725 204.603C149.725 233.286 126.392 256.62 97.7094 256.62Z" fill="#BEDCFF"/>
<path d="M403.772 224.578C417.597 210.753 417.597 188.34 403.772 174.515L358.817 129.56C344.994 115.735 322.579 115.735 308.755 129.56C294.93 143.385 294.93 165.799 308.755 179.623L353.71 224.578C367.534 238.402 389.947 238.402 403.772 224.578Z" fill="#BEDCFF"/>
<path d="M378.741 229.167C370.829 229.167 363.39 226.085 357.796 220.491L312.842 175.537C307.248 169.942 304.166 162.504 304.166 154.591C304.166 146.681 307.248 139.242 312.842 133.648C318.437 128.053 325.874 124.971 333.786 124.971C341.698 124.971 349.136 128.053 354.731 133.646L399.686 178.601C411.233 190.15 411.233 208.942 399.686 220.491C394.091 226.085 386.653 229.167 378.741 229.167Z" fill="#3F5E81"/>
<path d="M379.463 256.62C350.781 256.62 327.447 233.286 327.447 204.603C327.447 175.921 350.781 152.587 379.463 152.587C408.146 152.587 431.479 175.921 431.479 204.603C431.479 233.286 408.146 256.62 379.463 256.62Z" fill="#BEDCFF"/>
<path d="M310.759 53.5399C310.759 55.765 310.137 57.8457 309.068 59.6229C309.039 59.6518 309.025 59.6807 308.996 59.7241C308.346 60.5765 307.652 61.4146 306.93 62.2093C306.915 62.2093 306.915 62.2237 306.901 62.2381C300.5 69.2603 291.498 73.8695 281.529 74.4908C259.696 75.8346 241.577 58.5392 241.577 36.9959C241.577 36.2157 241.606 35.4354 241.65 34.6696C243.037 36.5624 244.597 38.3108 246.302 39.9002C246.736 40.3047 247.183 40.6948 247.631 41.085C248.137 41.5184 248.657 41.9374 249.192 42.342C249.683 42.7177 250.189 43.0789 250.695 43.4257C250.94 43.5991 251.171 43.758 251.417 43.9025C251.634 44.047 251.836 44.1915 252.053 44.3071C252.428 44.5672 252.819 44.7983 253.223 45.0151C253.714 45.304 254.22 45.593 254.74 45.8531C255.26 46.1132 255.781 46.3733 256.301 46.6044C256.749 46.8212 257.197 47.009 257.659 47.1969C258.338 47.4858 259.032 47.7314 259.725 47.9771C260.216 48.1505 260.722 48.3094 261.228 48.4539C262.225 48.7573 263.236 49.003 264.277 49.2197C264.551 49.2775 264.826 49.3353 265.1 49.3786C265.461 49.4509 265.837 49.5087 266.213 49.5665C266.458 49.6098 266.704 49.6387 266.95 49.6676C268.048 49.8265 269.16 49.9132 270.287 49.9566C270.822 49.9855 271.371 52.8897 271.92 52.8897C279.289 52.8897 286.167 47.8759 291.975 44.2059C292.38 43.9458 292.77 43.6857 293.16 43.4112C294.879 42.3998 296.888 41.8218 299.041 41.8218C303.014 41.8218 306.525 43.8013 308.635 46.8212C309.978 48.714 310.759 51.0402 310.759 53.5399Z" fill="white"/>
<path d="M308.635 46.8212C305.745 54.1613 300.24 60.172 293.275 63.7409C288.825 66.0383 283.768 67.3387 278.422 67.3387C262.181 67.3387 248.744 55.4472 246.302 39.9002C246.736 40.3048 247.183 40.6949 247.631 41.085C248.137 41.5185 248.657 41.9375 249.192 42.3421C249.683 42.7177 250.189 43.0789 250.695 43.4257C250.926 43.5991 251.171 43.7581 251.417 43.9025C251.634 44.047 251.836 44.1915 252.053 44.3071C252.443 44.5672 252.819 44.7984 253.223 45.0151C253.714 45.3041 254.22 45.5931 254.74 45.8531C255.26 46.1132 255.781 46.3733 256.301 46.6045C256.749 46.8212 257.197 47.0091 257.659 47.1969C258.338 47.4859 259.032 47.7315 259.725 47.9771C260.216 48.1505 260.722 48.3095 261.228 48.4539C262.225 48.7574 263.236 49.003 264.277 49.2197C264.551 49.2775 264.826 49.3353 265.1 49.3787C265.461 49.4509 265.837 49.5087 266.213 49.5665C266.458 49.6098 266.704 49.6387 266.95 49.6676C268.048 49.8266 269.16 49.9133 270.287 49.9566C270.822 49.9855 271.371 50 271.92 50C279.289 50 286.167 47.876 291.975 44.2059C292.38 43.9459 292.77 43.6858 293.16 43.4113C294.879 42.3998 296.888 41.8219 299.041 41.8219C303.014 41.8219 306.525 43.8014 308.635 46.8212Z" fill="#3F5E81"/>
<path d="M310.759 53.54C310.759 55.7651 310.137 57.8458 309.068 59.623C309.039 59.6519 309.025 59.6808 308.996 59.7241C308.418 60.6489 307.724 61.4869 306.93 62.2094C306.915 62.2094 306.915 62.2238 306.901 62.2382C304.82 64.1166 302.06 65.2581 299.041 65.2581C296.946 65.2581 294.98 64.709 293.276 63.741C289.721 61.7326 287.323 57.918 287.323 53.54C287.323 49.7255 289.158 46.33 291.975 44.206C292.38 43.9459 292.77 43.6858 293.16 43.4113C294.879 42.3999 296.888 41.8219 299.041 41.8219C303.014 41.8219 306.525 43.8014 308.635 46.8213C309.978 48.7141 310.759 51.0403 310.759 53.54Z" fill="white"/>
<path d="M234.354 36.996C234.354 58.5335 216.231 75.8361 194.403 74.4895C175.77 73.3393 160.569 58.2416 159.308 39.6155C158.88 33.3028 160.012 27.2863 162.361 21.9286C163.44 19.4709 167.058 19.7527 167.765 22.3433C172.111 38.2834 186.692 54.3347 204.012 54.3347C216.438 54.3347 227.446 43.9748 234.282 34.6697C234.325 35.4355 234.354 36.2157 234.354 36.996Z" fill="white"/>
<path d="M229.629 39.9001C227.188 55.4472 213.75 67.3386 197.509 67.3386C179.549 67.3386 164.999 52.7885 164.999 34.8285C164.999 30.2627 165.939 25.928 167.629 21.9979C167.687 22.099 167.73 22.2291 167.758 22.3447C172.108 38.2819 186.687 49.9999 204.011 49.9999C213.923 49.9999 222.925 46.171 229.629 39.9001Z" fill="#557396"/>
<path d="M229.629 39.9001C227.188 55.4472 213.75 67.3386 197.509 67.3386C179.549 67.3386 164.999 52.7885 164.999 34.8285C164.999 30.2627 165.939 25.928 167.629 21.9979C167.687 22.099 167.73 22.2291 167.758 22.3447C172.108 38.2819 186.687 49.9999 204.011 49.9999C213.923 49.9999 222.925 46.171 229.629 39.9001Z" fill="#3F5E81"/>
<path d="M178.623 154.581C178.623 163.655 175.156 172.7 168.249 179.621L123.298 224.572C121.203 226.652 118.92 228.43 116.493 229.875V197.104C116.493 164.883 137.776 137.532 167.021 128.385C167.44 128.761 167.844 129.151 168.249 129.556C175.156 136.462 178.623 145.536 178.623 154.581Z" fill="#3F5E81"/>
<path d="M359.235 197.104V229.094C357.284 227.794 355.435 226.291 353.715 224.572L308.75 179.621C301.844 172.7 298.39 163.655 298.39 154.581C298.39 145.536 301.844 136.462 308.75 129.556C309.039 129.267 309.343 128.978 309.646 128.703C338.414 138.124 359.235 165.23 359.235 197.104Z" fill="#3F5E81"/>
<path d="M353.455 284.072H330.337V401.109C330.337 407.492 335.513 412.668 341.896 412.668C348.28 412.668 353.455 407.492 353.455 401.109V284.072Z" fill="#3F5E81"/>
<path d="M334.672 402.554C332.277 402.554 330.337 400.613 330.337 398.219V386.66C330.337 384.266 332.277 382.325 334.672 382.325C337.066 382.325 339.006 384.266 339.006 386.66V398.219C339.006 400.613 337.066 402.554 334.672 402.554Z" fill="#9AB8DE"/>
<path d="M341.896 431.451C339.502 431.451 337.561 429.511 337.561 427.117V422.782C337.561 420.388 339.502 418.447 341.896 418.447C344.29 418.447 346.231 420.388 346.231 422.782V427.117C346.231 429.511 344.29 431.451 341.896 431.451Z" fill="#9AB8DE"/>
<path d="M145.391 284.072H122.273V362.097C122.273 368.48 127.448 373.656 133.832 373.656C140.215 373.656 145.391 368.48 145.391 362.097V284.072Z" fill="#3F5E81"/>
<path d="M133.832 379.435C131.438 379.435 129.497 377.495 129.497 375.101V370.766C129.497 368.372 131.438 366.431 133.832 366.431C136.226 366.431 138.166 368.372 138.166 370.766V375.101C138.166 377.495 136.226 379.435 133.832 379.435Z" fill="#9AB8DE"/>
<path d="M121.55 333.199C117.161 333.199 113.603 329.641 113.603 325.252V286.962H129.497V325.252C129.497 329.641 125.94 333.199 121.55 333.199Z" fill="#9AB8DE"/>
<path d="M352.733 317.305C348.343 317.305 344.786 313.748 344.786 309.358V271.068H360.68V309.358C360.68 313.748 357.122 317.305 352.733 317.305Z" fill="#9AB8DE"/>
<path d="M353.455 197.104V336.089H330.337V320.195C330.337 313.808 325.164 308.636 318.778 308.636C312.391 308.636 307.219 313.808 307.219 320.195V336.089H168.509C168.509 329.702 163.336 324.529 156.95 324.529C150.564 324.529 145.391 329.702 145.391 336.089H122.273V197.104C122.273 160.549 151.907 130.914 188.463 130.914H287.265C323.821 130.914 353.455 160.549 353.455 197.104Z" fill="#9AB8DE"/>
<path d="M353.455 249.395H330.337V366.431C330.337 372.815 335.513 377.99 341.896 377.99C348.28 377.99 353.455 372.815 353.455 366.431V249.395Z" fill="#9AB8DE"/>
<path d="M191.627 255.175H168.509V333.199C168.509 339.582 173.685 344.758 180.068 344.758C186.452 344.758 191.627 339.582 191.627 333.199V255.175Z" fill="#9AB8DE"/>
<path d="M168.509 284.072V362.097C168.509 368.48 173.685 373.656 180.068 373.656C186.452 373.656 191.627 378.831 191.627 385.215V438.676H284.1V385.215C284.1 378.831 289.276 373.656 295.66 373.656C302.043 373.656 307.219 368.48 307.219 362.097V284.072H168.509Z" fill="#9AB8DE"/>
<path d="M145.391 256.619H122.273V334.644C122.273 341.027 127.448 346.203 133.832 346.203C140.215 346.203 145.391 341.027 145.391 334.644V256.619Z" fill="#9AB8DE"/>
<path d="M298.549 204.603H304.329C307.521 204.603 310.109 207.191 310.109 210.383V215.382C310.109 219.162 308.262 222.64 305.284 224.777C303.083 226.356 300.941 228.015 299.106 230.007L298.549 230.611L297.993 230.007C296.158 228.015 294.015 226.356 291.815 224.777C288.837 222.64 286.99 219.162 286.99 215.382V210.383C286.99 207.191 289.578 204.603 292.77 204.603H298.549Z" fill="#7795B9"/>
<path d="M315.888 236.391H321.668C324.859 236.391 327.447 238.979 327.447 242.171V247.17C327.447 250.95 325.601 254.428 322.623 256.565C320.422 258.144 318.279 259.803 316.444 261.795L315.888 262.399L315.332 261.795C313.497 259.803 311.354 258.144 309.153 256.565C306.175 254.428 304.329 250.95 304.329 247.17V242.171C304.329 238.979 306.917 236.391 310.108 236.391H315.888Z" fill="#7795B9"/>
<path d="M315.888 172.816H321.668C324.859 172.816 327.447 175.404 327.447 178.595V183.595C327.447 187.375 325.601 190.852 322.623 192.989C320.422 194.569 318.279 196.227 316.444 198.22L315.888 198.824L315.332 198.22C313.497 196.227 311.354 194.569 309.153 192.989C306.175 190.852 304.329 187.375 304.329 183.595V178.595C304.329 175.404 306.917 172.816 310.108 172.816H315.888Z" fill="#7795B9"/>
<path d="M177.178 204.603H171.399C168.207 204.603 165.619 207.191 165.619 210.383V215.382C165.619 219.162 167.466 222.64 170.444 224.777C172.644 226.356 174.787 228.015 176.622 230.007L177.178 230.611L177.735 230.007C179.57 228.015 181.713 226.356 183.913 224.777C186.891 222.64 188.738 219.162 188.738 215.382V210.383C188.738 207.191 186.15 204.603 182.958 204.603H177.178Z" fill="#7795B9"/>
<path d="M159.84 236.391H154.06C150.868 236.391 148.281 238.979 148.281 242.171V247.17C148.281 250.95 150.127 254.428 153.105 256.565C155.306 258.144 157.448 259.803 159.283 261.795L159.84 262.399L160.396 261.795C162.231 259.803 164.374 258.144 166.574 256.565C169.552 254.428 171.399 250.95 171.399 247.17V242.171C171.399 238.979 168.811 236.391 165.619 236.391H159.84Z" fill="#7795B9"/>
<path d="M193.072 236.391H187.293C184.101 236.391 181.513 238.979 181.513 242.171V247.17C181.513 250.95 183.36 254.428 186.338 256.565C188.538 258.144 190.681 259.803 192.516 261.795L193.072 262.399L193.629 261.795C195.464 259.803 197.606 258.144 199.807 256.565C202.785 254.428 204.631 250.95 204.631 247.17V242.171C204.631 238.979 202.044 236.391 198.852 236.391H193.072Z" fill="#7795B9"/>
<path d="M208.966 204.603H203.186C199.995 204.603 197.407 207.191 197.407 210.383V215.382C197.407 219.162 199.253 222.64 202.231 224.777C204.432 226.356 206.575 228.015 208.41 230.007L208.966 230.611L209.522 230.007C211.357 228.015 213.5 226.356 215.701 224.777C218.679 222.64 220.525 219.162 220.525 215.382V210.383C220.525 207.191 217.937 204.603 214.746 204.603H208.966Z" fill="#7795B9"/>
<path d="M282.656 236.391H276.876C273.684 236.391 271.096 238.979 271.096 242.171V247.17C271.096 250.95 272.943 254.428 275.921 256.565C278.121 258.144 280.264 259.803 282.099 261.795L282.656 262.399L283.212 261.795C285.047 259.803 287.19 258.144 289.39 256.565C292.368 254.428 294.215 250.95 294.215 247.17V242.171C294.215 238.979 291.627 236.391 288.435 236.391H282.656Z" fill="#7795B9"/>
<path d="M266.762 204.603H272.541C275.733 204.603 278.321 207.191 278.321 210.383V215.382C278.321 219.162 276.474 222.64 273.496 224.777C271.296 226.356 269.153 228.015 267.318 230.007L266.762 230.611L266.205 230.007C264.37 228.015 262.228 226.356 260.027 224.777C257.049 222.64 255.203 219.162 255.203 215.382V210.383C255.203 207.191 257.79 204.603 260.982 204.603H266.762Z" fill="#7795B9"/>
<path d="M159.84 172.816H154.06C150.868 172.816 148.281 175.404 148.281 178.595V183.595C148.281 187.375 150.127 190.852 153.105 192.989C155.306 194.569 157.448 196.227 159.283 198.22L159.84 198.824L160.396 198.22C162.231 196.227 164.374 194.569 166.574 192.989C169.552 190.852 171.399 187.375 171.399 183.595V178.595C171.399 175.404 168.811 172.816 165.619 172.816H159.84Z" fill="#7795B9"/>
<path d="M162.73 195.977C161.906 196.685 161.126 197.422 160.389 198.217L159.84 198.824L159.291 198.217C157.441 196.223 155.303 194.561 153.107 192.987C150.13 190.848 148.281 187.38 148.281 183.595V178.595C148.281 175.402 150.867 172.816 154.06 172.816H159.84C156.647 172.816 154.06 175.402 154.06 178.595V183.595C154.06 187.38 155.91 190.848 158.886 192.987C160.201 193.94 161.501 194.908 162.73 195.977Z" fill="white"/>
<path d="M180.068 227.765C179.245 228.473 178.464 229.21 177.728 230.005L177.178 230.611L176.629 230.005C174.78 228.011 172.641 226.349 170.445 224.774C167.469 222.636 165.619 219.168 165.619 215.382V210.383C165.619 207.19 168.206 204.603 171.399 204.603H177.178C173.985 204.603 171.399 207.19 171.399 210.383V215.382C171.399 219.168 173.248 222.636 176.225 224.774C177.54 225.728 178.84 226.696 180.068 227.765Z" fill="white"/>
<path d="M177.178 268.179H171.399C168.207 268.179 165.619 270.766 165.619 273.958V278.958C165.619 282.737 167.466 286.215 170.444 288.352C172.644 289.931 174.787 291.59 176.622 293.583L177.178 294.187L177.735 293.583C179.57 291.59 181.713 289.931 183.913 288.352C186.891 286.215 188.738 282.737 188.738 278.958V273.958C188.738 270.766 186.15 268.179 182.958 268.179H177.178Z" fill="#7795B9"/>
<path d="M180.068 291.34C179.245 292.048 178.464 292.785 177.728 293.58L177.178 294.187L176.629 293.58C174.78 291.586 172.641 289.924 170.445 288.349C167.469 286.211 165.619 282.743 165.619 278.958V273.958C165.619 270.765 168.206 268.179 171.399 268.179H177.178C173.985 268.179 171.399 270.765 171.399 273.958V278.958C171.399 282.743 173.248 286.211 176.225 288.349C177.54 289.303 178.84 290.271 180.068 291.34Z" fill="white"/>
<path d="M298.549 268.179H304.329C307.521 268.179 310.109 270.766 310.109 273.958V278.958C310.109 282.737 308.262 286.215 305.284 288.352C303.083 289.931 300.941 291.59 299.106 293.583L298.549 294.187L297.993 293.583C296.158 291.59 294.015 289.931 291.815 288.352C288.837 286.215 286.99 282.737 286.99 278.958V273.958C286.99 270.766 289.578 268.179 292.77 268.179H298.549Z" fill="#7795B9"/>
<path d="M295.66 291.34C296.483 292.048 297.263 292.785 298 293.58L298.549 294.187L299.098 293.58C300.948 291.586 303.086 289.924 305.283 288.349C308.259 286.211 310.109 282.743 310.109 278.958V273.958C310.109 270.765 307.522 268.179 304.329 268.179H298.549C301.743 268.179 304.329 270.765 304.329 273.958V278.958C304.329 282.743 302.48 286.211 299.503 288.349C298.188 289.303 296.888 290.271 295.66 291.34Z" fill="white"/>
<path d="M162.73 259.553C161.906 260.261 161.126 260.998 160.389 261.792L159.84 262.399L159.291 261.792C157.441 259.798 155.303 258.137 153.107 256.562C150.13 254.423 148.281 250.956 148.281 247.17V242.171C148.281 238.977 150.867 236.391 154.06 236.391H159.84C156.647 236.391 154.06 238.977 154.06 242.171V247.17C154.06 250.956 155.91 254.423 158.886 256.562C160.201 257.515 161.501 258.483 162.73 259.553Z" fill="white"/>
<path d="M312.998 195.977C313.822 196.685 314.602 197.422 315.339 198.217L315.888 198.824L316.437 198.217C318.287 196.223 320.425 194.561 322.621 192.987C325.598 190.848 327.447 187.38 327.447 183.595V178.595C327.447 175.402 324.861 172.816 321.668 172.816H315.888C319.081 172.816 321.668 175.402 321.668 178.595V183.595C321.668 187.38 319.818 190.848 316.842 192.987C315.527 193.94 314.226 194.908 312.998 195.977Z" fill="white"/>
<path d="M295.66 227.765C296.483 228.473 297.263 229.21 298 230.005L298.549 230.611L299.098 230.005C300.948 228.011 303.086 226.349 305.283 224.774C308.259 222.636 310.109 219.168 310.109 215.382V210.383C310.109 207.19 307.522 204.603 304.329 204.603H298.549C301.743 204.603 304.329 207.19 304.329 210.383V215.382C304.329 219.168 302.48 222.636 299.503 224.774C298.188 225.728 296.888 226.696 295.66 227.765Z" fill="white"/>
<path d="M312.998 259.553C313.822 260.261 314.602 260.998 315.339 261.792L315.888 262.399L316.437 261.792C318.287 259.798 320.425 258.137 322.621 256.562C325.598 254.423 327.447 250.956 327.447 247.17V242.171C327.447 238.977 324.861 236.391 321.668 236.391H315.888C319.081 236.391 321.668 238.977 321.668 242.171V247.17C321.668 250.956 319.818 254.423 316.842 256.562C315.527 257.515 314.226 258.483 312.998 259.553Z" fill="white"/>
<path d="M132.387 255.175H122.273V276.126C122.273 282.908 127.772 288.407 134.554 288.407C141.336 288.407 146.836 282.908 146.836 276.126V269.624C146.836 261.643 140.367 255.175 132.387 255.175Z" fill="#7795B9"/>
<path d="M343.341 255.175H353.455V276.126C353.455 282.908 347.956 288.407 341.174 288.407C334.391 288.407 328.892 282.908 328.892 276.126V269.624C328.892 261.643 335.361 255.175 343.341 255.175Z" fill="#7795B9"/>
<path d="M143.946 204.603C143.946 230.139 123.245 250.84 97.7094 250.84C72.1738 250.84 51.4729 230.139 51.4729 204.603C51.4729 179.068 72.1738 158.367 97.7094 158.367C123.245 158.367 143.946 179.068 143.946 204.603Z" fill="white"/>
<path d="M425.7 204.603C425.7 230.139 404.999 250.84 379.463 250.84C353.928 250.84 333.227 230.139 333.227 204.603C333.227 179.068 353.928 158.367 379.463 158.367C404.999 158.367 425.7 179.068 425.7 204.603Z" fill="white"/>
<path d="M343.341 284.072H414.141V203.881C414.141 184.33 398.292 168.481 378.741 168.481C359.19 168.481 343.341 184.33 343.341 203.881V284.072Z" fill="#7795B9"/>
<path d="M391.745 210.383H367.182C365.186 210.383 363.569 208.766 363.569 206.771C363.569 204.775 365.186 203.158 367.182 203.158H391.745C393.74 203.158 395.357 204.775 395.357 206.771C395.357 208.766 393.74 210.383 391.745 210.383Z" fill="#9AB8DE"/>
<path d="M391.745 224.832H367.182C365.186 224.832 363.569 223.215 363.569 221.22C363.569 219.224 365.186 217.607 367.182 217.607H391.745C393.74 217.607 395.357 219.224 395.357 221.22C395.357 223.215 393.74 224.832 391.745 224.832Z" fill="#9AB8DE"/>
<path d="M391.745 239.281H367.182C365.186 239.281 363.569 237.664 363.569 235.669C363.569 233.673 365.186 232.056 367.182 232.056H391.745C393.74 232.056 395.357 233.673 395.357 235.669C395.357 237.664 393.74 239.281 391.745 239.281Z" fill="#9AB8DE"/>
<path d="M391.745 253.73H367.182C365.186 253.73 363.569 252.113 363.569 250.118C363.569 248.122 365.186 246.505 367.182 246.505H391.745C393.74 246.505 395.357 248.122 395.357 250.118C395.357 252.113 393.74 253.73 391.745 253.73Z" fill="#9AB8DE"/>
<path d="M282.656 126.579H193.072C185.092 126.579 178.623 120.11 178.623 112.13C178.623 104.15 185.092 97.6814 193.072 97.6814H282.656C290.636 97.6814 297.104 104.15 297.104 112.13C297.104 120.11 290.636 126.579 282.656 126.579Z" fill="#9AB8DE"/>
<path d="M193.072 120.8C188.291 120.8 184.403 116.911 184.403 112.13C184.403 107.349 188.291 103.461 193.072 103.461H282.656C287.437 103.461 291.325 107.349 291.325 112.13C291.325 116.911 287.437 120.8 282.656 120.8H193.072Z" fill="#3F5E81"/>
<path d="M259.448 158.367H216.28C204.261 158.367 194.517 148.623 194.517 136.602V83.2325C194.517 59.2921 213.923 39.8857 237.864 39.8857C261.804 39.8857 281.211 59.2921 281.211 83.2325V136.602C281.211 148.623 271.466 158.367 259.448 158.367Z" fill="#9AB8DE"/>
<path d="M281.211 117.91V153.132C281.211 176.753 262.689 196.717 239.078 197.363C214.581 198.031 194.517 178.377 194.517 154.032V117.91H197.645C202.301 117.91 206.076 121.685 206.076 126.341C206.076 128.69 207.84 130.79 210.186 130.908C212.687 131.034 214.746 129.053 214.746 126.579V126.341C214.746 121.685 218.521 117.91 223.177 117.91H252.551C257.207 117.91 260.982 121.685 260.982 126.341C260.982 128.69 262.746 130.79 265.091 130.908C267.593 131.034 269.652 129.053 269.652 126.579V126.341C269.652 121.685 273.427 117.91 278.082 117.91H281.211Z" fill="white"/>
<path d="M224.975 136.694L211.235 182.193C209.024 189.49 202.305 194.489 194.676 194.489C183.088 194.489 174.78 183.306 178.132 172.209L194.517 117.91C194.517 128.284 202.926 136.694 213.301 136.694H224.975Z" fill="white"/>
<path d="M250.752 136.691L264.493 182.19C266.704 189.487 273.423 194.486 281.052 194.486C292.64 194.486 300.948 183.303 297.596 172.206L281.211 117.907C281.211 128.281 272.801 136.691 262.427 136.691H250.752Z" fill="white"/>
<path d="M258.092 99.1408C258.092 101.535 256.152 103.475 253.758 103.475C251.364 103.475 249.423 101.535 249.423 99.1408C249.423 96.7466 251.364 94.8061 253.758 94.8061C256.152 94.8061 258.092 96.7466 258.092 99.1408Z" fill="#3F5E81"/>
<path d="M226.305 99.1408C226.305 101.535 224.364 103.475 221.97 103.475C219.576 103.475 217.635 101.535 217.635 99.1408C217.635 96.7466 219.576 94.8061 221.97 94.8061C224.364 94.8061 226.305 96.7466 226.305 99.1408Z" fill="#3F5E81"/>
<path d="M247.059 123.022C242.002 127.766 233.726 127.766 228.669 123.022C224.454 119.069 223.645 112.934 226.705 108.137L237.864 90.6434L249.023 108.137C252.083 112.934 251.274 119.069 247.059 123.022Z" fill="#3F5E81"/>
<path d="M237.864 29.7715C213.923 29.7715 194.517 49.1779 194.517 73.1183V83.2325H281.211V73.1183C281.211 49.1779 261.804 29.7715 237.864 29.7715Z" fill="#BEDCFF"/>
<path d="M200.297 77.4529V73.1183C200.297 52.4043 217.15 35.5511 237.864 35.5511C258.579 35.5511 275.431 52.4043 275.431 73.1183V77.4529H200.297Z" fill="#3F5E81"/>
<path d="M217.635 51.4449C217.635 54.6367 215.048 57.2245 211.856 57.2245C208.664 57.2245 206.076 54.6367 206.076 51.4449C206.076 48.2531 208.664 45.6653 211.856 45.6653C215.048 45.6653 217.635 48.2531 217.635 51.4449Z" fill="white"/>
<path d="M249.423 28.8684V109.241L237.864 117.91L226.305 109.241V28.8684C226.305 24.58 229.781 21.1021 234.071 21.1021H241.657C245.947 21.1021 249.423 24.58 249.423 28.8684Z" fill="white"/>
<path d="M193.614 74.5632H204.449C205.51 74.5632 206.547 74.8767 207.43 75.4648L207.432 75.4662C209.236 76.6684 211.587 76.6684 213.392 75.4662C214.275 74.8782 215.312 74.5632 216.373 74.5632H282.114C286.404 74.5632 289.88 78.0396 289.88 82.3295V89.9151C289.88 94.205 286.404 97.6814 282.114 97.6814H193.614C189.324 97.6814 185.848 94.205 185.848 89.9151V82.3295C185.848 78.0396 189.324 74.5632 193.614 74.5632Z" fill="white"/>
<path d="M258.092 97.6814H249.423V74.5632H258.092V97.6814Z" fill="#9AB8DE"/>
<path d="M242.199 34.1061C242.199 36.5003 240.258 38.4408 237.864 38.4408C235.47 38.4408 233.529 36.5003 233.529 34.1061C233.529 31.712 235.47 29.7715 237.864 29.7715C240.258 29.7715 242.199 31.712 242.199 34.1061Z" fill="#9AB8DE"/>
<path d="M242.199 51.4448C242.199 53.839 240.258 55.7795 237.864 55.7795C235.47 55.7795 233.529 53.839 233.529 51.4448C233.529 49.0507 235.47 47.1102 237.864 47.1102C240.258 47.1102 242.199 49.0507 242.199 51.4448Z" fill="#9AB8DE"/>
<path d="M242.199 68.7836C242.199 71.1777 240.258 73.1182 237.864 73.1182C235.47 73.1182 233.529 71.1777 233.529 68.7836C233.529 66.3894 235.47 64.4489 237.864 64.4489C240.258 64.4489 242.199 66.3894 242.199 68.7836Z" fill="#9AB8DE"/>
<path d="M242.199 86.1223C242.199 88.5165 240.258 90.4569 237.864 90.4569C235.47 90.4569 233.529 88.5165 233.529 86.1223C233.529 83.7281 235.47 81.7876 237.864 81.7876C240.258 81.7876 242.199 83.7281 242.199 86.1223Z" fill="#9AB8DE"/>
<path d="M242.199 103.461C242.199 105.855 240.258 107.796 237.864 107.796C235.47 107.796 233.529 105.855 233.529 103.461C233.529 101.067 235.47 99.1263 237.864 99.1263C240.258 99.1263 242.199 101.067 242.199 103.461Z" fill="#9AB8DE"/>
<path d="M224.86 86.1223C224.86 88.5165 222.919 90.4569 220.525 90.4569C218.131 90.4569 216.191 88.5165 216.191 86.1223C216.191 83.7281 218.131 81.7876 220.525 81.7876C222.919 81.7876 224.86 83.7281 224.86 86.1223Z" fill="#9AB8DE"/>
<path d="M275.431 86.1223C275.431 88.5165 273.491 90.4569 271.096 90.4569C268.702 90.4569 266.762 88.5165 266.762 86.1223C266.762 83.7281 268.702 81.7876 271.096 81.7876C273.491 81.7876 275.431 83.7281 275.431 86.1223Z" fill="#9AB8DE"/>
<path d="M207.521 86.1223C207.521 88.5165 205.581 90.4569 203.186 90.4569C200.792 90.4569 198.852 88.5165 198.852 86.1223C198.852 83.7281 200.792 81.7876 203.186 81.7876C205.581 81.7876 207.521 83.7281 207.521 86.1223Z" fill="#9AB8DE"/>
<path d="M245.088 135.249H230.639C229.043 135.249 227.75 133.956 227.75 132.359C227.75 130.762 229.043 129.469 230.639 129.469H245.088C246.685 129.469 247.978 130.762 247.978 132.359C247.978 133.956 246.685 135.249 245.088 135.249Z" fill="#9AB8DE"/>
<path d="M216.19 107.796H204.786C203.347 107.796 202.012 108.78 201.781 110.2C201.487 112.01 202.876 113.575 204.631 113.575H204.786C206.296 113.575 207.521 114.8 207.521 116.31C207.521 117.75 208.505 119.085 209.925 119.316C211.736 119.609 213.301 118.221 213.301 116.465V116.31C213.301 114.8 214.526 113.575 216.036 113.575C217.475 113.575 218.81 112.591 219.041 111.171C219.335 109.361 217.946 107.796 216.19 107.796Z" fill="#7795B9"/>
<path d="M271.096 107.796H259.692C258.253 107.796 256.918 108.78 256.686 110.2C256.393 112.01 257.782 113.575 259.537 113.575H259.692C261.202 113.575 262.427 114.8 262.427 116.31C262.427 117.75 263.411 119.085 264.831 119.316C266.642 119.609 268.207 118.221 268.207 116.465V116.31C268.207 114.8 269.432 113.575 270.942 113.575C272.381 113.575 273.716 112.591 273.947 111.171C274.24 109.361 272.852 107.796 271.096 107.796Z" fill="#7795B9"/>
<path d="M39.1913 291.297H443.761C448.15 291.297 451.708 287.74 451.708 283.35C451.708 278.96 448.15 275.403 443.761 275.403H39.1913C34.8025 275.403 31.2444 278.96 31.2444 283.35C31.2444 287.74 34.8025 291.297 39.1913 291.297Z" fill="#5C7EA5"/>
<path d="M401.859 302.856C408.641 302.856 414.141 297.357 414.141 290.574V256.62H389.578V290.574C389.578 297.357 395.077 302.856 401.859 302.856Z" fill="#7795B9"/>
<path d="M378.741 302.856C385.523 302.856 391.022 297.357 391.022 290.574V256.62H366.459V290.574C366.459 297.357 371.959 302.856 378.741 302.856Z" fill="#7795B9"/>
<path d="M355.623 302.856C362.405 302.856 367.904 297.357 367.904 290.574V256.62H343.341V290.574C343.341 297.357 348.84 302.856 355.623 302.856Z" fill="#7795B9"/>
<path d="M404.026 278.293H353.455C351.061 278.293 349.121 276.352 349.121 273.958C349.121 271.564 351.061 269.623 353.455 269.623H404.026C406.421 269.623 408.361 271.564 408.361 273.958C408.361 276.352 406.421 278.293 404.026 278.293Z" fill="#9AB8DE"/>
<path d="M355.623 285.517C352.032 285.517 349.121 282.606 349.121 279.015V273.958H362.125V279.015C362.125 282.606 359.213 285.517 355.623 285.517Z" fill="#9AB8DE"/>
<path d="M378.741 285.517C375.15 285.517 372.239 282.606 372.239 279.015V273.958H385.243V279.015C385.243 282.606 382.331 285.517 378.741 285.517Z" fill="#9AB8DE"/>
<path d="M401.859 285.517C398.269 285.517 395.357 282.606 395.357 279.015V273.958H408.361V279.015C408.361 282.606 405.45 285.517 401.859 285.517Z" fill="#9AB8DE"/>
<path d="M61.5871 285.517H132.387V203.881C132.387 184.33 116.538 168.481 96.987 168.481C77.4363 168.481 61.5871 184.33 61.5871 203.881V285.517Z" fill="#7795B9"/>
<path d="M149.725 388.105C149.725 391.296 147.138 393.884 143.946 393.884C140.754 393.884 138.166 391.296 138.166 388.105C138.166 384.913 140.754 382.325 143.946 382.325C147.138 382.325 149.725 384.913 149.725 388.105Z" fill="#3F5E81"/>
<path d="M324.557 323.084C324.557 326.276 321.97 328.864 318.778 328.864C315.586 328.864 312.998 326.276 312.998 323.084C312.998 319.893 315.586 317.305 318.778 317.305C321.97 317.305 324.557 319.893 324.557 323.084Z" fill="#9AB8DE"/>
<path d="M113.603 349.093C113.603 352.284 111.015 354.872 107.824 354.872C104.632 354.872 102.044 352.284 102.044 349.093C102.044 345.901 104.632 343.313 107.824 343.313C111.015 343.313 113.603 345.901 113.603 349.093Z" fill="#9AB8DE"/>
<path d="M138.166 402.554C138.166 404.948 136.226 406.888 133.832 406.888C131.438 406.888 129.497 404.948 129.497 402.554C129.497 400.159 131.438 398.219 133.832 398.219C136.226 398.219 138.166 400.159 138.166 402.554Z" fill="#9AB8DE"/>
<path d="M116.493 366.431C116.493 368.825 114.553 370.766 112.158 370.766C109.764 370.766 107.824 368.825 107.824 366.431C107.824 364.037 109.764 362.097 112.158 362.097C114.553 362.097 116.493 364.037 116.493 366.431Z" fill="#9AB8DE"/>
<path d="M359.235 421.337C359.235 423.731 357.294 425.672 354.9 425.672C352.506 425.672 350.565 423.731 350.565 421.337C350.565 418.943 352.506 417.003 354.9 417.003C357.294 417.003 359.235 418.943 359.235 421.337Z" fill="#3F5E81"/>
<path d="M120.105 302.856C126.888 302.856 132.387 297.357 132.387 290.574V256.62H107.824V290.574C107.824 297.357 113.323 302.856 120.105 302.856Z" fill="#7795B9"/>
<path d="M96.987 302.856C103.769 302.856 109.269 297.357 109.269 290.574V256.62H84.7054V290.574C84.7054 297.357 90.2039 302.856 96.987 302.856Z" fill="#7795B9"/>
<path d="M73.8687 302.856C80.6518 302.856 86.1503 297.357 86.1503 290.574V256.62H61.5871V290.574C61.5871 297.357 67.0857 302.856 73.8687 302.856Z" fill="#7795B9"/>
<path d="M122.273 278.293H71.7014C69.3072 278.293 67.3667 276.352 67.3667 273.958C67.3667 271.564 69.3072 269.623 71.7014 269.623H122.273C124.667 269.623 126.607 271.564 126.607 273.958C126.607 276.352 124.667 278.293 122.273 278.293Z" fill="#9AB8DE"/>
<path d="M73.8687 285.517C70.2779 285.517 67.3667 282.606 67.3667 279.015V273.958H80.3707V279.015C80.3707 282.606 77.4596 285.517 73.8687 285.517Z" fill="#9AB8DE"/>
<path d="M96.987 285.517C93.3964 285.517 90.485 282.606 90.485 279.015V273.958H103.489V279.015C103.489 282.606 100.578 285.517 96.987 285.517Z" fill="#9AB8DE"/>
<path d="M120.105 285.517C116.515 285.517 113.603 282.606 113.603 279.015V273.958H126.607V279.015C126.607 282.606 123.696 285.517 120.105 285.517Z" fill="#9AB8DE"/>
<path d="M107.101 208.938H82.5381C80.5428 208.938 78.9258 207.321 78.9258 205.326C78.9258 203.33 80.5428 201.714 82.5381 201.714H107.101C109.097 201.714 110.713 203.33 110.713 205.326C110.713 207.321 109.097 208.938 107.101 208.938Z" fill="#9AB8DE"/>
<path d="M107.101 223.387H82.5381C80.5428 223.387 78.9258 221.77 78.9258 219.775C78.9258 217.779 80.5428 216.163 82.5381 216.163H107.101C109.097 216.163 110.713 217.779 110.713 219.775C110.713 221.77 109.097 223.387 107.101 223.387Z" fill="#9AB8DE"/>
<path d="M107.101 237.836H82.5381C80.5428 237.836 78.9258 236.219 78.9258 234.224C78.9258 232.228 80.5428 230.611 82.5381 230.611H107.101C109.097 230.611 110.713 232.228 110.713 234.224C110.713 236.219 109.097 237.836 107.101 237.836Z" fill="#9AB8DE"/>
<path d="M107.101 252.285H82.5381C80.5428 252.285 78.9258 250.668 78.9258 248.673C78.9258 246.677 80.5428 245.06 82.5381 245.06H107.101C109.097 245.06 110.713 246.677 110.713 248.673C110.713 250.668 109.097 252.285 107.101 252.285Z" fill="#9AB8DE"/>
<path d="M423.298 366.431C398.427 366.563 376.923 360.507 367.06 339.204C389.774 329.938 405.736 307.458 405.6 281.262C405.552 272 403.498 263.213 399.843 255.342C406.884 252.473 414.578 250.872 422.654 250.83C430.728 250.786 438.438 252.306 445.509 255.101C441.936 263.01 439.974 271.82 440.022 281.082C440.157 307.276 456.352 329.588 479.161 338.614C469.519 360.02 448.168 366.3 423.298 366.431Z" fill="#3F5E81"/>
<path d="M478.563 223.141C455.843 232.403 439.88 254.886 440.023 281.081V281.183H405.6C405.414 255.03 389.235 232.735 366.459 223.734C376.098 202.32 397.454 196.064 422.325 195.934C447.194 195.804 468.694 201.829 478.563 223.141Z" fill="#5C7EA5"/>
<path d="M478.959 339.022C469.249 360.204 448.009 374.956 423.301 375.086C418.533 375.115 413.909 374.595 409.445 373.584C407.003 373.034 404.619 372.341 402.307 371.503C386.847 365.983 374.233 354.424 367.268 339.614C381.79 353.63 401.527 362.198 423.229 362.082C444.931 361.967 464.582 353.196 478.959 339.022Z" fill="white"/>
<path d="M478.359 222.735C463.829 208.71 444.092 200.144 422.391 200.259C400.69 200.373 381.044 209.146 366.659 223.323C376.374 202.134 397.611 187.385 422.323 187.255C447.035 187.125 468.425 201.649 478.359 222.735Z" fill="white"/>
<path d="M440.653 360.113C439.592 363.635 436.538 366.394 432.665 366.847C428.792 367.301 425.191 365.324 423.356 362.141C426.143 361.591 428.441 359.824 429.761 357.463C430.516 356.115 432.31 355.904 433.35 357.041C435.174 359.033 437.814 360.223 440.653 360.113Z" fill="white"/>
<path d="M422.783 354.433C420.916 355.914 418.211 355.589 416.74 353.709C415.271 351.828 415.593 349.103 417.46 347.622C419.326 346.141 422.031 346.464 423.502 348.346C424.972 350.227 424.651 352.952 422.783 354.433Z" fill="white"/>
<path d="M433.813 347.523C432.567 348.51 430.764 348.294 429.784 347.041C428.803 345.787 429.019 343.969 430.263 342.982C431.508 341.995 433.311 342.211 434.291 343.465C435.272 344.719 435.057 346.535 433.813 347.523Z" fill="white"/>
<path d="M427.145 263.844C427.145 266.238 425.204 268.179 422.81 268.179C420.416 268.179 418.475 266.238 418.475 263.844C418.475 261.45 420.416 259.509 422.81 259.509C425.204 259.509 427.145 261.45 427.145 263.844Z" fill="#3F5E81"/>
<path d="M411.251 289.852C408.059 289.852 405.471 287.264 405.471 284.072V275.403H417.03V284.072C417.03 287.264 414.443 289.852 411.251 289.852Z" fill="#5C7EA5"/>
<path d="M434.369 289.852C431.177 289.852 428.59 287.264 428.59 284.072V275.403H440.149V284.072C440.149 287.264 437.561 289.852 434.369 289.852Z" fill="#5C7EA5"/>
<path d="M422.81 275.403C426.002 275.403 428.59 277.991 428.59 281.183V289.852H417.03V281.183C417.03 277.991 419.618 275.403 422.81 275.403Z" fill="#3F5E81"/>
<path d="M261.705 64.4489C259.709 64.4489 258.092 66.0657 258.092 68.0611V74.5631H265.317V68.0611C265.317 66.0657 263.7 64.4489 261.705 64.4489Z" fill="#9AB8DE"/>
<path d="M265.317 56.502C265.317 58.4974 263.7 60.1142 261.705 60.1142C259.709 60.1142 258.092 58.4974 258.092 56.502C258.092 54.5066 259.709 52.8898 261.705 52.8898C263.7 52.8898 265.317 54.5066 265.317 56.502Z" fill="#9AB8DE"/>
<path d="M332.504 282.628H143.224C141.228 282.628 139.611 281.011 139.611 279.015C139.611 277.02 141.228 275.403 143.224 275.403H332.504C334.5 275.403 336.117 277.02 336.117 279.015C336.117 281.011 334.5 282.628 332.504 282.628Z" fill="#3F5E81"/>
<path d="M50.7504 282.628H40.6362C38.6409 282.628 37.024 281.011 37.024 279.015C37.024 277.02 38.6409 275.403 40.6362 275.403H50.7504C52.7457 275.403 54.3626 277.02 54.3626 279.015C54.3626 281.011 52.7457 282.628 50.7504 282.628Z" fill="#3F5E81"/>
<path d="M409.445 373.583C407.003 373.034 404.619 372.341 402.307 371.503L407.74 369.321L409.445 373.583Z" fill="white"/>
<path d="M291.325 55.7796L288.435 61.5591L282.788 58.009L285.545 52.8898L291.325 55.7796Z" fill="#3F5E81"/>
<path d="M167.064 78.8978C167.064 80.4945 165.771 81.7876 164.174 81.7876C162.578 81.7876 161.285 80.4945 161.285 78.8978C161.285 77.3012 162.578 76.0081 164.174 76.0081C165.771 76.0081 167.064 77.3012 167.064 78.8978Z" fill="#BEDCFF"/>
</g>
<path d="M313.685 438.17C320.59 436.194 324.583 428.993 322.607 422.088L309.483 376.249C307.506 369.345 300.306 365.35 293.401 367.327C286.498 369.304 282.502 376.504 284.479 383.409L297.603 429.248C299.58 436.153 306.78 440.147 313.685 438.17Z" fill="#F57D92"/>
<path d="M162.1 438.17C155.196 436.194 151.201 428.993 153.177 422.088L166.303 376.249C168.279 369.345 175.479 365.35 182.383 367.327C189.288 369.304 193.282 376.504 191.305 383.409L178.181 429.248C176.205 436.153 169.005 440.147 162.1 438.17Z" fill="#F57D92"/>
<path d="M166.616 353.958L157.18 385.414C156.345 388.196 158.428 390.994 161.331 390.994H194.517V333.199C181.653 333.199 170.312 341.637 166.616 353.958Z" fill="white"/>
<path d="M309.112 353.958L318.548 385.414C319.383 388.196 317.3 390.994 314.397 390.994H281.211V333.199C294.075 333.199 305.416 341.637 309.112 353.958Z" fill="white"/>
<path d="M263.872 412.668H279.766C279.766 407.879 275.885 403.998 271.096 403.998H263.872C261.478 403.998 259.537 405.939 259.537 408.333C259.537 410.727 261.478 412.668 263.872 412.668Z" fill="#F57D92"/>
<path d="M274.986 317.12L263.427 312.303C259.906 310.836 256.127 310.08 252.313 310.08H223.415C219.599 310.08 215.822 310.836 212.299 312.304L200.742 317.12C189.973 321.606 182.958 332.128 182.958 343.794V438.676H292.77V343.794C292.77 332.128 285.755 321.606 274.986 317.12Z" fill="#5C5B85"/>
<path d="M237.864 383.77L227.027 399.664L216.191 383.77L227.027 367.876L237.864 383.77Z" fill="#288D49"/>
<path d="M259.537 383.77L248.701 399.664L237.864 383.77L248.701 367.876L259.537 383.77Z" fill="#288D49"/>
<path d="M211.856 412.668H195.962C195.962 407.879 199.843 403.998 204.631 403.998H211.856C214.25 403.998 216.191 405.939 216.191 408.333C216.191 410.727 214.25 412.668 211.856 412.668Z" fill="#F57D92"/>
<path d="M263.872 412.668H279.766C279.766 407.879 275.885 403.998 271.096 403.998H263.872C261.478 403.998 259.537 405.939 259.537 408.333C259.537 410.727 261.478 412.668 263.872 412.668Z" fill="#F57D92"/>
<path d="M258.092 326.265L237.864 354.872L217.635 326.265V316.402H258.092V326.265Z" fill="#67CCC4"/>
<path d="M258.092 325.974C258.092 320.948 258.092 315.86 258.092 315.86V308.636C258.092 300.655 251.624 294.187 243.644 294.187H232.084C224.104 294.187 217.635 300.655 217.635 308.636V315.86V325.974C215.241 325.974 213.301 327.915 213.301 330.309C213.301 332.703 215.241 334.644 217.635 334.644C229.362 334.644 234.292 328.1 236.364 322.738C236.896 321.361 238.832 321.361 239.364 322.738C241.436 328.1 246.366 334.644 258.092 334.644C260.487 334.644 262.427 332.703 262.427 330.309C262.427 327.915 260.487 325.974 258.092 325.974Z" fill="white"/>
<path d="M249.423 269.623V304.301C249.423 304.807 249.394 305.312 249.322 305.804C248.585 311.482 243.745 315.86 237.864 315.86C231.998 315.86 227.157 311.496 226.406 305.847C226.334 305.341 226.305 304.821 226.305 304.301V269.623C226.305 263.237 231.478 258.064 237.864 258.064C241.057 258.064 243.947 259.365 246.042 261.445C248.123 263.541 249.423 266.43 249.423 269.623Z" fill="#F89EA7"/>
<path d="M282.656 237.836H193.072C185.092 237.836 178.623 231.367 178.623 223.387C178.623 215.407 185.092 208.938 193.072 208.938H282.656C290.636 208.938 297.104 215.407 297.104 223.387C297.104 231.367 290.636 237.836 282.656 237.836Z" fill="#EFB8B4"/>
<path d="M193.072 232.056C188.291 232.056 184.403 228.168 184.403 223.387C184.403 218.606 188.291 214.718 193.072 214.718H282.656C287.437 214.718 291.325 218.606 291.325 223.387C291.325 228.168 287.437 232.056 282.656 232.056H193.072Z" fill="#F57D92"/>
<path d="M237.864 265.289C213.923 265.289 194.517 245.883 194.517 221.942V190.154C194.517 166.214 213.923 146.808 237.864 146.808C261.804 146.808 281.211 166.214 281.211 190.154V221.942C281.211 245.883 261.804 265.289 237.864 265.289Z" fill="#FAC1BD"/>
<path d="M260.982 207.493C260.982 209.887 259.042 211.828 256.648 211.828C254.253 211.828 252.313 209.887 252.313 207.493C252.313 205.099 254.253 203.158 256.648 203.158C259.042 203.158 260.982 205.099 260.982 207.493Z" fill="#382C30"/>
<path d="M223.415 207.493C223.415 209.887 221.474 211.828 219.08 211.828C216.686 211.828 214.746 209.887 214.746 207.493C214.746 205.099 216.686 203.158 219.08 203.158C221.474 203.158 223.415 205.099 223.415 207.493Z" fill="#382C30"/>
<path d="M281.211 221.942V257.164C281.211 280.785 262.689 300.749 239.078 301.395C214.581 302.063 194.517 282.409 194.517 258.064V221.942H197.645C202.301 221.942 206.076 225.718 206.076 230.373C206.076 232.722 207.84 234.822 210.186 234.94C212.687 235.066 214.746 233.085 214.746 230.611V230.373C214.746 225.718 218.521 221.942 223.177 221.942H252.551C257.207 221.942 260.982 225.718 260.982 230.373C260.982 232.722 262.746 234.822 265.091 234.94C267.593 235.066 269.652 233.085 269.652 230.611V230.373C269.652 225.718 273.427 221.942 278.083 221.942H281.211Z" fill="#C87973"/>
<path d="M248.787 236.102C248.686 236.001 248.585 235.9 248.469 235.799C246.49 234.007 243.672 233.516 241.101 234.411C240.06 234.773 238.962 234.961 237.864 234.961C236.766 234.961 235.668 234.773 234.627 234.411C232.056 233.516 229.238 234.007 227.258 235.799C227.143 235.9 227.042 236.001 226.941 236.102C223.314 239.801 224.6 246.101 229.455 247.892C232.157 248.875 235.018 249.381 237.864 249.395C240.71 249.381 243.571 248.875 246.273 247.892C251.128 246.101 252.414 239.801 248.787 236.102Z" fill="white"/>
<path d="M253.035 221.942H222.693C218.303 221.942 214.746 225.499 214.746 229.889C214.746 234.279 218.303 237.836 222.693 237.836H253.035C257.425 237.836 260.982 234.279 260.982 229.889C260.982 225.499 257.425 221.942 253.035 221.942Z" fill="#A7645F"/>
<path d="M250.868 237.836H224.86V221.942H250.868V237.836Z" fill="#955B56"/>
<path d="M219.08 226.277C211.898 226.277 206.076 220.455 206.076 213.273V208.938H232.084V213.273C232.084 220.455 226.263 226.277 219.08 226.277Z" fill="white"/>
<path d="M256.648 226.277C249.465 226.277 243.644 220.455 243.644 213.273V208.938H269.652V213.273C269.652 220.455 263.83 226.277 256.648 226.277Z" fill="white"/>
<path d="M247.059 231.374C242.002 236.116 233.726 236.116 228.669 231.374C224.454 227.421 223.645 221.286 226.705 216.488L237.864 198.996L249.023 216.488C252.083 221.286 251.274 227.421 247.059 231.374Z" fill="#F57D92"/>
<path d="M242.199 260.954H233.529C231.933 260.954 230.639 259.661 230.639 258.064C230.639 256.468 231.933 255.175 233.529 255.175H242.199C243.795 255.175 245.088 256.468 245.088 258.064C245.088 259.661 243.795 260.954 242.199 260.954Z" fill="#8F4743"/>
<path d="M271.096 367.876H204.631V438.676H271.096V367.876Z" fill="white"/>
<path d="M204.631 369.321L232.084 393.884H271.096V363.541H204.631V369.321Z" fill="#74D0C9"/>
<path d="M224.86 168.481C224.86 171.673 222.272 174.261 219.08 174.261C215.889 174.261 213.301 171.673 213.301 168.481C213.301 165.289 215.889 162.702 219.08 162.702C222.272 162.702 224.86 165.289 224.86 168.481Z" fill="white"/>
<path d="M271.096 438.676H310.109C317.291 438.676 323.113 432.854 323.113 425.672C323.113 418.489 317.291 412.668 310.109 412.668H271.096C263.914 412.668 258.092 418.489 258.092 425.672C258.092 432.854 263.914 438.676 271.096 438.676Z" fill="#FAC1BD"/>
<path d="M204.631 438.676H165.619C158.437 438.676 152.615 432.854 152.615 425.672C152.615 418.489 158.437 412.668 165.619 412.668H204.631C211.814 412.668 217.635 418.489 217.635 425.672C217.635 432.854 211.814 438.676 204.631 438.676Z" fill="#FAC1BD"/>
<path d="M271.096 369.321L237.864 375.101L204.631 369.321V344.758L237.864 350.537L271.096 344.758V369.321Z" fill="#ADE4E4"/>
<path d="M271.096 347.648L237.864 353.427L204.631 347.648V344.758L237.864 350.537L271.096 344.758V347.648Z" fill="white"/>
<path d="M220.525 421.337H208.966C206.572 421.337 204.631 419.397 204.631 417.002C204.631 414.608 206.572 412.668 208.966 412.668H220.525C222.919 412.668 224.86 414.608 224.86 417.002C224.86 419.397 222.919 421.337 220.525 421.337Z" fill="#F57D92"/>
<path d="M223.415 430.007H208.966C206.572 430.007 204.631 428.066 204.631 425.672C204.631 423.278 206.572 421.337 208.966 421.337H223.415C225.809 421.337 227.75 423.278 227.75 425.672C227.75 428.066 225.809 430.007 223.415 430.007Z" fill="#F57D92"/>
<path d="M220.525 438.676H208.966C206.572 438.676 204.631 436.735 204.631 434.341C204.631 431.947 206.572 430.007 208.966 430.007H220.525C222.919 430.007 224.86 431.947 224.86 434.341C224.86 436.735 222.919 438.676 220.525 438.676Z" fill="#F57D92"/>
<path d="M255.203 430.007H266.762C269.156 430.007 271.096 431.947 271.096 434.341C271.096 436.735 269.156 438.676 266.762 438.676H255.203C252.808 438.676 250.868 436.735 250.868 434.341C250.868 431.947 252.808 430.007 255.203 430.007Z" fill="#F57D92"/>
<path d="M252.313 421.337H266.762C269.156 421.337 271.096 423.278 271.096 425.672C271.096 428.066 269.156 430.007 266.762 430.007H252.313C249.919 430.007 247.978 428.066 247.978 425.672C247.978 423.278 249.919 421.337 252.313 421.337Z" fill="#F57D92"/>
<path d="M255.203 412.668H266.762C269.156 412.668 271.096 414.608 271.096 417.002C271.096 419.397 269.156 421.337 266.762 421.337H255.203C252.808 421.337 250.868 419.397 250.868 417.002C250.868 414.608 252.808 412.668 255.203 412.668Z" fill="#F57D92"/>
<path d="M240.754 337.533C240.754 339.13 239.461 340.423 237.864 340.423C236.267 340.423 234.974 339.13 234.974 337.533C234.974 335.937 236.267 334.644 237.864 334.644C239.461 334.644 240.754 335.937 240.754 337.533Z" fill="white"/>
<path d="M226.305 190.155H211.856C209.462 190.155 207.521 188.214 207.521 185.82C207.521 183.426 209.462 181.485 211.856 181.485H226.305C228.699 181.485 230.639 183.426 230.639 185.82C230.639 188.214 228.699 190.155 226.305 190.155Z" fill="#955B56"/>
<path d="M263.872 190.155H249.423C247.029 190.155 245.088 188.214 245.088 185.82C245.088 183.426 247.029 181.485 249.423 181.485H263.872C266.266 181.485 268.207 183.426 268.207 185.82C268.207 188.214 266.266 190.155 263.872 190.155Z" fill="#955B56"/>
<path d="M237.864 295.632C233.664 295.632 229.495 295.022 225.477 293.82C223.948 293.363 223.08 291.752 223.536 290.223C223.993 288.693 225.603 287.823 227.133 288.283C230.644 289.333 234.23 289.862 237.959 289.852C238.267 289.852 238.575 289.852 238.883 289.839C242.225 289.747 245.467 289.203 248.55 288.225C250.063 287.744 251.693 288.583 252.177 290.106C252.66 291.628 251.817 293.252 250.296 293.734C246.701 294.876 242.924 295.507 239.072 295.616C238.687 295.632 238.276 295.632 237.864 295.632Z" fill="#8F4743"/>
<path d="M452.029 453.844H20.4108V439.395H452.029V453.844Z" fill="#C87973"/>
<path d="M452.344 483.951H20.3125V453.482H452.344V483.951Z" fill="#8F4743"/>
<defs>
<filter id="filter0_d" x="27.2444" y="20.2338" width="455.916" height="426.442" filterUnits="userSpaceOnUse" color-interpolation-filters="sRGB">
<feFlood flood-opacity="0" result="BackgroundImageFix"/>
<feColorMatrix in="SourceAlpha" type="matrix" values="0 0 0 0 0 0 0 0 0 0 0 0 0 0 0 0 0 0 127 0"/>
<feOffset dy="4"/>
<feGaussianBlur stdDeviation="2"/>
<feColorMatrix type="matrix" values="0 0 0 0 0 0 0 0 0 0 0 0 0 0 0 0 0 0 0.25 0"/>
<feBlend mode="normal" in2="BackgroundImageFix" result="effect1_dropShadow"/>
<feBlend mode="normal" in="SourceGraphic" in2="effect1_dropShadow" result="shape"/>
</filter>
</defs>
</svg>
